<svg xmlns="http://www.w3.org/2000/svg" xmlns:xlink="http://www.w3.org/1999/xlink" width="500" zoomAndPan="magnify" viewBox="0 0 375 374.999991" height="500" preserveAspectRatio="xMidYMid meet" version="1.0"><defs><clipPath id="9b831fcf87"><path d="M 43 175 L 128 175 L 128 324.75 L 43 324.75 Z M 43 175 " clip-rule="nonzero"/></clipPath><clipPath id="5581726b87"><path d="M 148 102 L 233 102 L 233 324.75 L 148 324.75 Z M 148 102 " clip-rule="nonzero"/></clipPath><clipPath id="0c20309f05"><path d="M 253 37.5 L 337 37.5 L 337 324.75 L 253 324.75 Z M 253 37.5 " clip-rule="nonzero"/></clipPath></defs><path fill="#2196f3" d="M 54.757812 185.453125 C 54.054688 185.453125 53.480469 186.027344 53.480469 186.730469 L 53.480469 312.96875 C 53.480469 313.671875 54.054688 314.246094 54.757812 314.246094 L 115.90625 314.246094 C 116.609375 314.246094 117.183594 313.671875 117.183594 312.96875 L 117.183594 186.730469 C 117.183594 186.023438 116.609375 185.449219 115.90625 185.449219 L 54.757812 185.449219 Z M 54.757812 185.453125 " fill-opacity="1" fill-rule="nonzero"/><g clip-path="url(#9b831fcf87)"><path fill="#2196f3" d="M 54.757812 175.34375 C 48.480469 175.34375 43.371094 180.449219 43.371094 186.730469 L 43.371094 312.96875 C 43.371094 319.246094 48.480469 324.351562 54.757812 324.351562 L 115.90625 324.351562 C 122.183594 324.351562 127.292969 319.246094 127.292969 312.96875 L 127.292969 186.730469 C 127.292969 180.449219 122.183594 175.34375 115.90625 175.34375 Z M 117.183594 186.730469 L 117.183594 312.96875 C 117.183594 313.671875 116.609375 314.242188 115.90625 314.242188 L 54.757812 314.242188 C 54.054688 314.242188 53.480469 313.671875 53.480469 312.96875 L 53.480469 186.730469 C 53.480469 186.023438 54.054688 185.449219 54.757812 185.449219 L 115.90625 185.449219 C 116.609375 185.453125 117.183594 186.023438 117.183594 186.730469 Z M 117.183594 186.730469 " fill-opacity="1" fill-rule="nonzero"/></g><path fill="#2196f3" d="M 220.722656 112.183594 L 159.578125 112.183594 C 158.871094 112.183594 158.300781 112.753906 158.300781 113.460938 L 158.300781 312.96875 C 158.300781 313.671875 158.871094 314.246094 159.578125 314.246094 L 220.722656 314.246094 C 221.429688 314.246094 222 313.671875 222 312.96875 L 222 113.457031 C 222 112.753906 221.429688 112.183594 220.722656 112.183594 Z M 220.722656 112.183594 " fill-opacity="1" fill-rule="nonzero"/><g clip-path="url(#5581726b87)"><path fill="#2196f3" d="M 220.722656 102.070312 L 159.578125 102.070312 C 153.300781 102.070312 148.191406 107.179688 148.191406 113.457031 L 148.191406 312.96875 C 148.191406 319.246094 153.300781 324.351562 159.578125 324.351562 L 220.726562 324.351562 C 227.003906 324.351562 232.113281 319.246094 232.113281 312.96875 L 232.113281 113.457031 C 232.109375 107.179688 227.003906 102.070312 220.722656 102.070312 Z M 222 312.96875 C 222 313.671875 221.429688 314.242188 220.722656 314.242188 L 159.578125 314.242188 C 158.875 314.242188 158.300781 313.671875 158.300781 312.96875 L 158.300781 113.457031 C 158.300781 112.753906 158.875 112.179688 159.578125 112.179688 L 220.726562 112.179688 C 221.429688 112.179688 222.003906 112.753906 222.003906 113.457031 L 222.003906 312.96875 Z M 222 312.96875 " fill-opacity="1" fill-rule="nonzero"/></g><path fill="#2196f3" d="M 264.394531 314.242188 L 325.542969 314.242188 C 326.246094 314.242188 326.820312 313.667969 326.820312 312.964844 L 326.820312 48.886719 C 326.820312 48.183594 326.246094 47.609375 325.542969 47.609375 L 264.394531 47.609375 C 263.691406 47.609375 263.117188 48.183594 263.117188 48.886719 L 263.117188 312.96875 C 263.117188 313.671875 263.691406 314.242188 264.394531 314.242188 Z M 264.394531 314.242188 " fill-opacity="1" fill-rule="nonzero"/><g clip-path="url(#0c20309f05)"><path fill="#2196f3" d="M 264.394531 324.351562 L 325.542969 324.351562 C 331.820312 324.351562 336.929688 319.246094 336.929688 312.96875 L 336.929688 48.886719 C 336.929688 42.609375 331.820312 37.5 325.542969 37.5 L 264.394531 37.5 C 258.117188 37.5 253.007812 42.609375 253.007812 48.886719 L 253.007812 312.96875 C 253.011719 319.246094 258.117188 324.351562 264.394531 324.351562 Z M 263.117188 48.886719 C 263.117188 48.183594 263.691406 47.609375 264.394531 47.609375 L 325.542969 47.609375 C 326.246094 47.609375 326.820312 48.183594 326.820312 48.886719 L 326.820312 312.96875 C 326.820312 313.671875 326.246094 314.242188 325.542969 314.242188 L 264.394531 314.242188 C 263.691406 314.242188 263.117188 313.671875 263.117188 312.96875 Z M 263.117188 48.886719 " fill-opacity="1" fill-rule="nonzero"/></g></svg>