<svg xmlns="http://www.w3.org/2000/svg" xmlns:xlink="http://www.w3.org/1999/xlink" width="500" zoomAndPan="magnify" viewBox="0 0 375 374.999991" height="500" preserveAspectRatio="xMidYMid meet" version="1.0"><path fill="#dae4fe" d="M 240.140625 278.144531 C 226.222656 281.046875 211.84375 282.445312 197.222656 283.054688 C 160.113281 284.597656 121.117188 281.332031 85.554688 270.464844 C 38.210938 255.996094 18.476562 198.429688 49.140625 158.785156 C 58.078125 147.242188 69.910156 140.484375 81.378906 131.9375 C 94.875 121.875 107.238281 110.285156 116.75 96.3125 C 125.054688 84.113281 130.527344 70.148438 139.601562 58.46875 C 149.625 45.566406 164.609375 37.519531 180.636719 34.964844 C 238.167969 25.785156 301.875 58.960938 336.695312 103.785156 C 375.054688 153.160156 342.332031 220.375 298.027344 253.128906 C 280.234375 266.28125 260.691406 273.859375 240.140625 278.144531 Z M 240.140625 278.144531 " fill-opacity="1" fill-rule="nonzero"/><path fill="#dae4fe" d="M 22.40625 201.753906 C 20.960938 201.753906 19.738281 200.648438 19.617188 199.1875 C 17.222656 170.046875 31.378906 146.300781 61.6875 128.632812 C 89.164062 112.613281 107.921875 82.132812 108.113281 81.820312 C 108.917969 80.503906 110.636719 80.078125 111.960938 80.878906 C 113.277344 81.683594 113.695312 83.402344 112.902344 84.722656 C 112.117188 86.019531 93.238281 116.714844 64.519531 133.460938 C 36.230469 149.957031 23 171.910156 25.210938 198.730469 C 25.339844 200.273438 24.1875 201.617188 22.652344 201.742188 C 22.558594 201.753906 22.488281 201.753906 22.40625 201.753906 Z M 22.40625 201.753906 " fill-opacity="1" fill-rule="nonzero"/><path fill="#4b6fdd" d="M 107.722656 334.40625 C 107.722656 334.40625 108.828125 342.625 109.914062 343.867188 C 113.558594 348.058594 121.773438 346.644531 125.851562 344.113281 C 128.425781 342.515625 126.03125 336.992188 126.03125 336.992188 Z M 107.722656 334.40625 " fill-opacity="1" fill-rule="nonzero"/><path fill="#192351" d="M 120.679688 325.96875 C 120.679688 325.96875 123.21875 331.574219 123.621094 332.167969 C 124.03125 332.761719 130.949219 341.246094 121.757812 343.117188 C 112.5625 344.988281 110.488281 343.675781 108.316406 337.464844 C 107.0625 333.875 108.425781 326.910156 108.425781 326.910156 C 108.425781 326.910156 108.925781 328.980469 112.089844 329.027344 C 117.636719 329.101562 120.066406 327.976562 120.679688 325.96875 Z M 120.679688 325.96875 " fill-opacity="1" fill-rule="nonzero"/><path fill="#ffffff" d="M 119.644531 330.125 L 112.628906 331.109375 C 112.363281 331.144531 112.125 330.964844 112.089844 330.699219 C 112.050781 330.433594 112.234375 330.195312 112.5 330.160156 L 119.515625 329.171875 C 119.78125 329.136719 120.019531 329.320312 120.058594 329.585938 C 120.09375 329.847656 119.910156 330.085938 119.644531 330.125 Z M 119.644531 330.125 " fill-opacity="1" fill-rule="nonzero"/><path fill="#ffffff" d="M 120.085938 332.023438 L 113.066406 333.007812 C 112.800781 333.046875 112.5625 332.863281 112.527344 332.597656 C 112.492188 332.332031 112.671875 332.09375 112.9375 332.058594 L 119.957031 331.074219 C 120.222656 331.035156 120.457031 331.21875 120.496094 331.484375 C 120.53125 331.738281 120.347656 331.984375 120.085938 332.023438 Z M 120.085938 332.023438 " fill-opacity="1" fill-rule="nonzero"/><path fill="#ffffff" d="M 120.566406 334.25 L 113.550781 335.238281 C 113.285156 335.273438 113.046875 335.089844 113.011719 334.824219 C 112.976562 334.5625 113.15625 334.324219 113.421875 334.289062 L 120.441406 333.300781 C 120.707031 333.265625 120.941406 333.445312 120.980469 333.710938 C 121.015625 333.976562 120.832031 334.214844 120.566406 334.25 Z M 120.566406 334.25 " fill-opacity="1" fill-rule="nonzero"/><path fill="#192351" d="M 107.273438 238.949219 C 103.4375 222.773438 102.265625 206.300781 102.265625 206.300781 L 87.207031 194.539062 L 54.339844 206.539062 C 53.242188 221.195312 54.074219 286.875 54.03125 295.90625 C 53.984375 304.9375 53.929688 326.324219 53.929688 326.324219 C 53.929688 326.324219 64.773438 328.734375 69.105469 325.082031 C 69.105469 325.082031 71.289062 309.320312 71.820312 301.949219 C 73.609375 276.820312 78.242188 234.4375 78.242188 234.4375 C 78.242188 234.4375 85.308594 254.546875 91.355469 270.453125 L 105.601562 324.304688 C 118.988281 325.601562 122.789062 322.160156 122.789062 322.160156 C 122.789062 322.160156 109.859375 249.832031 107.273438 238.949219 Z M 107.273438 238.949219 " fill-opacity="1" fill-rule="nonzero"/><path fill="#dae4fe" d="M 78.242188 234.65625 C 78.144531 234.65625 78.050781 234.582031 78.035156 234.480469 L 76.070312 224.4375 C 76.050781 224.316406 76.125 224.207031 76.234375 224.191406 C 76.351562 224.171875 76.460938 224.246094 76.480469 224.355469 L 78.445312 234.398438 C 78.464844 234.519531 78.390625 234.628906 78.28125 234.648438 C 78.269531 234.65625 78.261719 234.65625 78.242188 234.65625 Z M 78.242188 234.65625 " fill-opacity="1" fill-rule="nonzero"/><path fill="#dae4fe" d="M 77.265625 229.632812 C 77.238281 229.632812 77.210938 229.625 77.183594 229.613281 C 77.027344 229.550781 73.457031 228.070312 71.9375 226.820312 C 71.847656 226.746094 71.839844 226.609375 71.910156 226.519531 C 71.984375 226.429688 72.121094 226.417969 72.214844 226.492188 C 73.683594 227.695312 77.3125 229.203125 77.347656 229.222656 C 77.457031 229.269531 77.503906 229.386719 77.46875 229.496094 C 77.429688 229.585938 77.347656 229.632812 77.265625 229.632812 Z M 77.265625 229.632812 " fill-opacity="1" fill-rule="nonzero"/><path fill="#4b6fdd" d="M 36.3125 341.355469 C 36.3125 341.355469 35.453125 346.296875 41.273438 346.890625 C 47.09375 347.484375 51.179688 347.164062 54.183594 346.515625 C 57.191406 345.859375 58.882812 344.917969 62.042969 345.183594 C 65.203125 345.445312 68.4375 346.761719 70.027344 345.15625 C 71.335938 343.839844 70.140625 340.242188 70.140625 340.242188 L 52.714844 340.324219 Z M 36.3125 341.355469 " fill-opacity="1" fill-rule="nonzero"/><path fill="#192351" d="M 54.742188 330.734375 C 54.742188 330.734375 47.835938 335.65625 44.433594 337.335938 C 41.035156 339.007812 36.621094 337.847656 36.320312 341.355469 C 36.019531 344.863281 45.613281 344.09375 51.234375 343.574219 C 56.851562 343.054688 60.792969 340.863281 63.734375 341.738281 C 66.675781 342.605469 69.945312 341.210938 70.15625 340.242188 C 70.367188 339.273438 68.949219 330.742188 68.203125 329.929688 C 68.203125 329.929688 67.789062 331.613281 62.253906 331.757812 C 56.714844 331.894531 54.742188 330.734375 54.742188 330.734375 Z M 54.742188 330.734375 " fill-opacity="1" fill-rule="nonzero"/><path fill="#ffffff" d="M 48.300781 337.859375 L 48.21875 337.914062 C 48.054688 338.011719 47.851562 337.957031 47.753906 337.792969 L 46.703125 336.011719 C 46.609375 335.847656 46.65625 335.640625 46.820312 335.546875 L 46.902344 335.492188 C 47.066406 335.390625 47.269531 335.445312 47.367188 335.613281 L 48.417969 337.390625 C 48.519531 337.546875 48.464844 337.757812 48.300781 337.859375 Z M 48.300781 337.859375 " fill-opacity="1" fill-rule="nonzero"/><path fill="#ffffff" d="M 49.871094 336.742188 L 49.789062 336.796875 C 49.625 336.898438 49.425781 336.84375 49.324219 336.679688 L 48.273438 334.898438 C 48.183594 334.734375 48.226562 334.523438 48.390625 334.433594 L 48.472656 334.378906 C 48.636719 334.277344 48.839844 334.332031 48.941406 334.496094 L 49.992188 336.277344 C 50.082031 336.441406 50.027344 336.652344 49.871094 336.742188 Z M 49.871094 336.742188 " fill-opacity="1" fill-rule="nonzero"/><path fill="#ffffff" d="M 51.699219 335.566406 L 51.617188 335.621094 C 51.453125 335.722656 51.25 335.667969 51.152344 335.5 L 50.101562 333.722656 C 50.007812 333.558594 50.054688 333.347656 50.21875 333.253906 L 50.300781 333.199219 C 50.464844 333.101562 50.667969 333.15625 50.765625 333.320312 L 51.816406 335.101562 C 51.910156 335.265625 51.863281 335.472656 51.699219 335.566406 Z M 51.699219 335.566406 " fill-opacity="1" fill-rule="nonzero"/><path fill="#ffffff" d="M 53.507812 334.40625 L 53.425781 334.460938 C 53.261719 334.5625 53.0625 334.507812 52.960938 334.34375 L 51.910156 332.5625 C 51.816406 332.398438 51.863281 332.1875 52.027344 332.09375 L 52.109375 332.039062 C 52.273438 331.941406 52.476562 331.996094 52.578125 332.160156 L 53.628906 333.941406 C 53.71875 334.09375 53.664062 334.304688 53.507812 334.40625 Z M 53.507812 334.40625 " fill-opacity="1" fill-rule="nonzero"/><path fill="#c47249" d="M 69.316406 171.132812 C 58.71875 172.792969 40.550781 177.234375 40.550781 177.234375 C 41.265625 166.394531 42.570312 157.808594 44.179688 151.023438 C 49.898438 126.859375 61.09375 125.363281 61.09375 125.363281 L 69.378906 129.5625 L 78.984375 133.636719 C 78.984375 133.636719 79.914062 169.472656 69.316406 171.132812 Z M 69.316406 171.132812 " fill-opacity="1" fill-rule="nonzero"/><path fill="#c47249" d="M 57.417969 173.316406 C 57.417969 173.316406 62.097656 186.429688 52.941406 187.816406 C 49.597656 188.328125 33.691406 175.480469 33.691406 175.480469 L 44.207031 168.839844 Z M 57.417969 173.316406 " fill-opacity="1" fill-rule="nonzero"/><path fill="#4b6fdd" d="M 69.378906 129.5625 C 68.6875 138.621094 66.875 150.203125 62.179688 151.207031 C 56.351562 152.449219 48 151.554688 44.171875 151.023438 C 49.890625 126.859375 59.933594 125.171875 59.933594 125.171875 Z M 69.378906 129.5625 " fill-opacity="1" fill-rule="nonzero"/><path fill="#192351" d="M 55.738281 151.929688 C 55.738281 151.929688 55.730469 151.929688 55.738281 151.929688 C 55.664062 151.929688 55.621094 151.875 55.621094 151.808594 C 55.621094 151.734375 56.066406 144.914062 56.988281 141.226562 C 57.007812 141.160156 57.074219 141.125 57.128906 141.144531 C 57.191406 141.160156 57.226562 141.226562 57.210938 141.28125 C 56.285156 144.960938 55.847656 151.753906 55.847656 151.828125 C 55.847656 151.875 55.800781 151.929688 55.738281 151.929688 Z M 55.738281 151.929688 " fill-opacity="1" fill-rule="nonzero"/><path fill="#c47249" d="M 64.234375 132.183594 C 64.273438 132.082031 73.292969 141.636719 79.175781 139.710938 C 85.753906 137.542969 88.695312 124.148438 88.695312 124.148438 L 87.65625 110.695312 L 87.644531 110.476562 L 87.628906 109.671875 L 86.332031 110.148438 L 81.167969 112.03125 L 79.09375 112.789062 L 73.792969 114.714844 C 73.792969 114.714844 73.703125 118.195312 73.042969 121.015625 C 72.972656 121.316406 72.90625 121.589844 72.835938 121.863281 C 72.6875 122.332031 72.46875 122.769531 72.222656 123.132812 C 71.65625 124.019531 70.953125 124.585938 70.953125 124.59375 C 69.617188 127.398438 64.28125 132.183594 64.234375 132.183594 Z M 64.234375 132.183594 " fill-opacity="1" fill-rule="nonzero"/><path fill="#c47249" d="M 66.238281 106.734375 C 67.898438 114.039062 70.84375 121.355469 77.925781 120.265625 C 82.875 119.5 87.644531 112.640625 88.714844 106.347656 C 89.261719 103.097656 89.773438 100.265625 89.765625 98.128906 C 89.757812 96.441406 89.675781 95.382812 89.675781 95.382812 L 88.460938 91.710938 L 87.738281 89.566406 C 87.738281 89.566406 86.148438 88.277344 84.367188 86.824219 C 82.144531 85.007812 78.726562 87.636719 78.671875 87.511719 C 78.582031 87.316406 68.632812 85.929688 65.507812 89.910156 C 65.496094 89.921875 65.488281 89.929688 65.488281 89.9375 C 65.203125 90.304688 64.984375 90.667969 64.847656 91.042969 C 64.730469 91.355469 64.675781 91.675781 64.675781 91.992188 C 64.675781 92.605469 64.703125 93.527344 64.738281 94.6875 C 64.765625 95.171875 64.785156 95.703125 64.820312 96.265625 C 64.875 97.21875 64.957031 98.257812 65.066406 99.355469 C 65.285156 101.644531 65.652344 104.203125 66.238281 106.734375 Z M 66.238281 106.734375 " fill-opacity="1" fill-rule="nonzero"/><path fill="#192351" d="M 67.097656 110.085938 C 68.621094 116.761719 71.464844 120.914062 77.996094 120.265625 C 84.246094 119.65625 87.535156 112.980469 88.515625 107.226562 C 87.984375 105.867188 87.4375 102.496094 87.4375 102.496094 C 87.4375 102.496094 85.835938 100.011719 85.855469 100.101562 C 86.066406 101.136719 85.992188 108.183594 82.957031 109.0625 C 79.660156 110.019531 78.480469 110.871094 77.21875 110.851562 C 75.960938 110.832031 75.585938 110.394531 74.480469 110.667969 C 73.363281 110.941406 72.605469 111.527344 71.109375 111.273438 C 69.699219 111.042969 68.148438 112.039062 67.097656 110.085938 Z M 67.097656 110.085938 " fill-opacity="1" fill-rule="nonzero"/><path fill="#192351" d="M 90.09375 98.046875 C 90.09375 98.046875 91.28125 82.050781 81.953125 82.050781 C 81.953125 82.050781 74.6875 78.652344 66.65625 83.28125 C 61.375 86.324219 63.285156 92.707031 63.816406 94.917969 C 64.144531 96.304688 64.710938 97.453125 64.894531 97.382812 C 65.40625 97.171875 65.460938 95.785156 67.332031 96.210938 C 74.925781 97.949219 79.6875 92.257812 81.816406 93.5 C 83.945312 94.742188 88.523438 107.226562 88.523438 107.226562 C 88.523438 107.226562 88.90625 101.328125 90.09375 98.046875 Z M 90.09375 98.046875 " fill-opacity="1" fill-rule="nonzero"/><path fill="#c47249" d="M 88.25 99.4375 C 88.25 99.4375 92.453125 96.421875 92.507812 100.789062 C 92.5625 105.152344 88.503906 107.234375 88.503906 107.234375 Z M 88.25 99.4375 " fill-opacity="1" fill-rule="nonzero"/><path fill="#192351" d="M 89.375 100.789062 C 89.375 100.789062 92.71875 99.609375 89.511719 104.449219 Z M 89.375 100.789062 " fill-opacity="1" fill-rule="nonzero"/><path fill="#192351" d="M 70.777344 104.585938 C 70.867188 104.902344 70.878906 105.191406 70.8125 105.449219 C 70.746094 105.710938 70.621094 105.867188 70.4375 105.921875 C 70.25 105.972656 70.0625 105.90625 69.867188 105.722656 C 69.671875 105.535156 69.53125 105.285156 69.441406 104.96875 C 69.351562 104.65625 69.339844 104.367188 69.40625 104.109375 C 69.472656 103.847656 69.597656 103.691406 69.78125 103.636719 C 69.964844 103.585938 70.152344 103.652344 70.347656 103.835938 C 70.542969 104.023438 70.683594 104.273438 70.777344 104.585938 Z M 70.777344 104.585938 " fill-opacity="1" fill-rule="nonzero"/><path fill="#192351" d="M 78.84375 103.261719 C 78.933594 103.578125 78.945312 103.867188 78.878906 104.125 C 78.8125 104.386719 78.6875 104.542969 78.503906 104.59375 C 78.320312 104.648438 78.128906 104.582031 77.9375 104.394531 C 77.742188 104.210938 77.597656 103.960938 77.507812 103.644531 C 77.417969 103.332031 77.40625 103.042969 77.472656 102.78125 C 77.539062 102.523438 77.664062 102.367188 77.847656 102.3125 C 78.03125 102.261719 78.222656 102.328125 78.417969 102.511719 C 78.609375 102.695312 78.753906 102.949219 78.84375 103.261719 Z M 78.84375 103.261719 " fill-opacity="1" fill-rule="nonzero"/><path fill="#192351" d="M 71.109375 102.503906 C 71.109375 102.503906 69.015625 101.144531 67.359375 102.167969 Z M 71.109375 102.503906 " fill-opacity="1" fill-rule="nonzero"/><path fill="#192351" d="M 80.746094 100.167969 C 80.582031 100.15625 77.996094 99.875 76.582031 101.617188 Z M 80.746094 100.167969 " fill-opacity="1" fill-rule="nonzero"/><path fill="#192351" d="M 74.140625 108.101562 C 73.628906 108.101562 73.402344 107.867188 73.300781 107.683594 C 73 107.144531 73.328125 106.304688 73.804688 105.9375 C 73.859375 105.894531 73.929688 105.910156 73.976562 105.964844 C 74.011719 106.019531 74.003906 106.09375 73.949219 106.140625 C 73.519531 106.46875 73.300781 107.179688 73.511719 107.5625 C 73.710938 107.929688 74.269531 107.957031 75.074219 107.644531 C 75.136719 107.617188 75.210938 107.65625 75.226562 107.71875 C 75.257812 107.78125 75.21875 107.855469 75.15625 107.875 C 74.734375 108.039062 74.40625 108.101562 74.140625 108.101562 Z M 74.140625 108.101562 " fill-opacity="1" fill-rule="nonzero"/><path fill="#ffffff" d="M 73.089844 114.402344 C 73.089844 114.402344 73.191406 114.578125 73.417969 114.789062 C 73.8125 115.171875 74.578125 115.691406 75.738281 115.554688 C 76.882812 115.417969 77.605469 114.679688 77.980469 114.167969 C 78.179688 113.875 78.28125 113.664062 78.28125 113.664062 Z M 73.089844 114.402344 " fill-opacity="1" fill-rule="nonzero"/><path fill="#4b6fdd" d="M 109.367188 130.46875 C 102.578125 143.371094 101.417969 185.925781 103.070312 208.4375 C 88.167969 211.953125 66.75 213.699219 54.058594 210.191406 C 55.894531 186.144531 52.941406 146.46875 59.933594 125.171875 C 59.933594 125.171875 67.890625 122.878906 73.117188 122.667969 C 68.714844 128.632812 85.226562 130.25 88.714844 122.667969 C 88.714844 122.667969 105.546875 126.167969 109.367188 130.46875 Z M 109.367188 130.46875 " fill-opacity="1" fill-rule="nonzero"/><path fill="#192351" d="M 55.738281 151.929688 C 55.738281 151.929688 55.730469 151.929688 55.738281 151.929688 C 55.664062 151.929688 55.621094 151.875 55.621094 151.808594 C 55.621094 151.734375 56.066406 144.914062 56.988281 141.226562 C 57.007812 141.160156 57.074219 141.125 57.128906 141.144531 C 57.191406 141.160156 57.226562 141.226562 57.210938 141.28125 C 56.285156 144.960938 55.847656 151.753906 55.847656 151.828125 C 55.847656 151.875 55.800781 151.929688 55.738281 151.929688 Z M 55.738281 151.929688 " fill-opacity="1" fill-rule="nonzero"/><path fill="#c47249" d="M 130.984375 176.628906 C 133.066406 184.929688 125.832031 188.375 110.207031 182.546875 C 102.824219 179.800781 97.496094 178.832031 95.761719 177.269531 L 96.71875 168.703125 C 98.015625 169.097656 106.167969 169.296875 113.496094 170.257812 L 107.164062 156.257812 C 108.890625 156.121094 115.535156 154.558594 121.308594 149.207031 C 126.617188 160.785156 129.195312 169.507812 130.984375 176.628906 Z M 130.984375 176.628906 " fill-opacity="1" fill-rule="nonzero"/><path fill="#4b6fdd" d="M 108.460938 129.664062 C 108.460938 129.664062 113.265625 132.066406 117.507812 139.261719 C 121.34375 145.78125 125.210938 153.835938 124.414062 154.757812 C 119.527344 160.492188 108.242188 161.167969 108.242188 161.167969 L 103.117188 151.515625 Z M 108.460938 129.664062 " fill-opacity="1" fill-rule="nonzero"/><path fill="#192351" d="M 127.757812 174.730469 C 127.722656 174.730469 127.6875 174.710938 127.667969 174.683594 C 124.289062 170.019531 113.597656 170.355469 113.496094 170.367188 C 113.433594 170.367188 113.386719 170.320312 113.378906 170.257812 C 113.378906 170.191406 113.421875 170.136719 113.488281 170.136719 C 113.515625 170.136719 116.238281 170.046875 119.351562 170.53125 C 122.242188 170.988281 126.050781 172.054688 127.859375 174.546875 C 127.898438 174.601562 127.886719 174.675781 127.832031 174.710938 C 127.8125 174.722656 127.785156 174.730469 127.757812 174.730469 Z M 127.757812 174.730469 " fill-opacity="1" fill-rule="nonzero"/><path fill="#c47249" d="M 86.027344 177.734375 C 86.988281 177.105469 88.15625 176.859375 92.132812 177.433594 C 94.527344 177.78125 98.355469 176.902344 99.398438 176.675781 L 99.011719 169.304688 C 97.46875 168.90625 94.957031 167.25 93.082031 166.367188 C 90.734375 165.261719 88.15625 163.371094 86.183594 164.046875 C 82.832031 165.179688 78.847656 167.160156 79.339844 168.410156 C 79.851562 169.664062 83.800781 168.429688 83.800781 168.429688 C 83.800781 168.429688 81.769531 169.542969 82.027344 170.894531 C 82.28125 172.246094 84.0625 172.695312 84.0625 172.695312 C 83.105469 174.101562 84.832031 175.40625 84.832031 175.40625 C 84.046875 176.675781 85.261719 178.226562 86.027344 177.734375 Z M 86.027344 177.734375 " fill-opacity="1" fill-rule="nonzero"/><path fill="#192351" d="M 84.839844 175.523438 C 84.804688 175.523438 84.777344 175.507812 84.75 175.480469 C 84.714844 175.433594 84.714844 175.359375 84.769531 175.316406 C 84.832031 175.269531 86.265625 174.082031 88.523438 173.945312 C 88.523438 173.945312 88.523438 173.945312 88.53125 173.945312 C 88.597656 173.945312 88.640625 173.992188 88.652344 174.054688 C 88.652344 174.117188 88.605469 174.171875 88.542969 174.171875 C 86.367188 174.3125 84.933594 175.480469 84.921875 175.488281 C 84.894531 175.515625 84.867188 175.523438 84.839844 175.523438 Z M 84.839844 175.523438 " fill-opacity="1" fill-rule="nonzero"/><path fill="#192351" d="M 84.074219 172.8125 C 84.035156 172.8125 84.007812 172.804688 83.992188 172.777344 C 83.945312 172.730469 83.953125 172.65625 84 172.613281 C 84.074219 172.546875 85.875 170.976562 88.003906 170.628906 C 88.066406 170.613281 88.121094 170.65625 88.140625 170.722656 C 88.148438 170.785156 88.101562 170.839844 88.046875 170.859375 C 85.984375 171.195312 84.175781 172.777344 84.15625 172.785156 C 84.128906 172.804688 84.101562 172.8125 84.074219 172.8125 Z M 84.074219 172.8125 " fill-opacity="1" fill-rule="nonzero"/><path fill="#192351" d="M 83.808594 168.546875 C 83.773438 168.546875 83.726562 168.53125 83.707031 168.492188 C 83.679688 168.4375 83.699219 168.367188 83.753906 168.339844 C 83.773438 168.328125 85.625 167.296875 87.847656 167.296875 C 87.921875 167.296875 88.003906 167.332031 87.992188 167.414062 C 87.992188 167.480469 87.9375 167.535156 87.875 167.535156 C 87.867188 167.535156 87.847656 167.535156 87.839844 167.535156 C 85.683594 167.535156 83.882812 168.53125 83.863281 168.539062 C 83.84375 168.539062 83.828125 168.546875 83.808594 168.546875 Z M 83.808594 168.546875 " fill-opacity="1" fill-rule="nonzero"/><path fill="#192351" d="M 93.203125 178.503906 L 61.039062 178.503906 L 61.039062 175.890625 L 90.910156 175.890625 C 92.167969 175.890625 93.191406 176.914062 93.191406 178.171875 L 93.191406 178.503906 Z M 93.203125 178.503906 " fill-opacity="1" fill-rule="nonzero"/><path fill="#192351" d="M 27.660156 178.503906 L 81.488281 178.503906 L 76.070312 143.765625 L 22.242188 143.765625 Z M 27.660156 178.503906 " fill-opacity="1" fill-rule="nonzero"/><path fill="#ffffff" d="M 54.757812 161.839844 C 54.855469 162.371094 54.855469 162.898438 54.757812 163.425781 C 54.660156 163.953125 54.472656 164.4375 54.195312 164.875 C 53.914062 165.316406 53.570312 165.679688 53.152344 165.964844 C 52.734375 166.253906 52.28125 166.441406 51.789062 166.53125 C 51.300781 166.621094 50.808594 166.605469 50.316406 166.484375 C 49.828125 166.363281 49.375 166.148438 48.957031 165.835938 C 48.539062 165.519531 48.195312 165.136719 47.914062 164.679688 C 47.636719 164.222656 47.449219 163.726562 47.351562 163.195312 C 47.253906 162.660156 47.253906 162.132812 47.351562 161.605469 C 47.449219 161.078125 47.636719 160.597656 47.917969 160.15625 C 48.195312 159.714844 48.542969 159.351562 48.957031 159.066406 C 49.375 158.777344 49.828125 158.589844 50.320312 158.5 C 50.8125 158.410156 51.300781 158.425781 51.792969 158.546875 C 52.285156 158.667969 52.738281 158.882812 53.152344 159.199219 C 53.570312 159.511719 53.917969 159.894531 54.195312 160.351562 C 54.472656 160.8125 54.660156 161.304688 54.757812 161.839844 Z M 54.757812 161.839844 " fill-opacity="1" fill-rule="nonzero"/><path fill="#c47249" d="M 36.960938 178.476562 C 36.960938 178.476562 37.410156 178.265625 37.199219 176.246094 C 36.988281 174.238281 37.609375 172.265625 39.546875 172.484375 C 39.546875 172.484375 41.199219 170.484375 42.925781 172.464844 C 42.925781 172.464844 44.929688 171.5625 46.246094 173.222656 C 46.246094 173.222656 47.898438 172.300781 48.730469 173.527344 C 49.5625 174.75 49.972656 178.292969 48.738281 179.167969 C 47.496094 180.046875 44.324219 180.53125 41.421875 180.484375 C 38.515625 180.4375 36.960938 178.476562 36.960938 178.476562 Z M 36.960938 178.476562 " fill-opacity="1" fill-rule="nonzero"/><path fill="#192351" d="M 39.546875 178.0625 C 39.527344 178.0625 39.511719 178.054688 39.492188 178.046875 C 39.4375 178.007812 39.417969 177.945312 39.445312 177.890625 C 40.597656 175.917969 39.445312 172.546875 39.4375 172.519531 C 39.417969 172.457031 39.445312 172.394531 39.511719 172.375 C 39.574219 172.355469 39.636719 172.382812 39.65625 172.449219 C 39.703125 172.59375 40.851562 175.953125 39.65625 178.007812 C 39.628906 178.046875 39.582031 178.0625 39.546875 178.0625 Z M 39.546875 178.0625 " fill-opacity="1" fill-rule="nonzero"/><path fill="#192351" d="M 42.925781 178.238281 C 42.910156 178.238281 42.898438 178.238281 42.882812 178.226562 C 42.828125 178.199219 42.800781 178.136719 42.816406 178.074219 C 43.824219 175.773438 42.816406 172.53125 42.808594 172.492188 C 42.789062 172.429688 42.828125 172.367188 42.882812 172.347656 C 42.945312 172.328125 43.011719 172.367188 43.027344 172.421875 C 43.074219 172.558594 44.070312 175.789062 43.027344 178.164062 C 43.019531 178.210938 42.972656 178.238281 42.925781 178.238281 Z M 42.925781 178.238281 " fill-opacity="1" fill-rule="nonzero"/><path fill="#192351" d="M 45.832031 178.539062 C 45.816406 178.539062 45.789062 178.53125 45.769531 178.519531 C 45.714844 178.484375 45.707031 178.410156 45.734375 178.367188 C 46.9375 176.53125 46.136719 173.277344 46.125 173.25 C 46.109375 173.1875 46.144531 173.125 46.207031 173.113281 C 46.273438 173.097656 46.335938 173.132812 46.34375 173.195312 C 46.382812 173.332031 47.1875 176.574219 45.925781 178.492188 C 45.90625 178.519531 45.871094 178.539062 45.832031 178.539062 Z M 45.832031 178.539062 " fill-opacity="1" fill-rule="nonzero"/><path fill="#192351" d="M 308.050781 250.261719 L 145.3125 250.261719 C 142.261719 250.261719 140.242188 247.613281 140.808594 244.34375 L 168.550781 82.378906 C 169.050781 79.445312 171.828125 76.84375 174.761719 76.542969 L 330.328125 60.945312 C 333.828125 60.597656 336.375 62.890625 336 66.085938 L 315.480469 243.734375 C 315.058594 247.339844 311.722656 250.261719 308.050781 250.261719 Z M 308.050781 250.261719 " fill-opacity="1" fill-rule="nonzero"/><path fill="#ffffff" d="M 303.746094 245.96875 L 141.007812 245.96875 C 137.957031 245.96875 135.9375 243.320312 136.503906 240.054688 L 164.246094 78.085938 C 164.746094 75.152344 167.527344 72.550781 170.457031 72.25 L 326.023438 56.652344 C 329.523438 56.304688 332.074219 58.597656 331.699219 61.792969 L 311.175781 239.441406 C 310.765625 243.046875 307.429688 245.96875 303.746094 245.96875 Z M 303.746094 245.96875 " fill-opacity="1" fill-rule="nonzero"/><path fill="#dae4fe" d="M 302.230469 236.957031 L 144.5625 237.722656 L 168.605469 95.316406 L 320.578125 82.085938 Z M 302.230469 236.957031 " fill-opacity="1" fill-rule="nonzero"/><path fill="#4b6fdd" d="M 176.433594 82.734375 C 176.207031 84.105469 174.910156 85.308594 173.539062 85.4375 C 172.167969 85.566406 171.253906 84.558594 171.480469 83.199219 C 171.710938 81.839844 173 80.632812 174.371094 80.496094 C 175.730469 80.367188 176.652344 81.363281 176.433594 82.734375 Z M 176.433594 82.734375 " fill-opacity="1" fill-rule="nonzero"/><path fill="#4b6fdd" d="M 193.777344 81.097656 C 193.558594 82.476562 192.242188 83.703125 190.84375 83.828125 C 189.445312 83.957031 188.503906 82.945312 188.722656 81.574219 C 188.945312 80.203125 190.257812 78.980469 191.648438 78.84375 C 193.046875 78.714844 193.996094 79.71875 193.777344 81.097656 Z M 193.777344 81.097656 " fill-opacity="1" fill-rule="nonzero"/><path fill="#4b6fdd" d="M 185.058594 81.921875 C 184.832031 83.289062 183.535156 84.515625 182.144531 84.640625 C 180.765625 84.769531 179.832031 83.765625 180.0625 82.394531 C 180.289062 81.027344 181.589844 79.8125 182.96875 79.683594 C 184.347656 79.546875 185.289062 80.550781 185.058594 81.921875 Z M 185.058594 81.921875 " fill-opacity="1" fill-rule="nonzero"/><path fill="#4b6fdd" d="M 274.761719 208.765625 L 175.796875 210.765625 L 178.34375 194.839844 L 276.917969 191.945312 Z M 274.761719 208.765625 " fill-opacity="1" fill-rule="nonzero"/><path fill="#ffffff" d="M 214.347656 197.121094 L 213.660156 203.617188 L 216.136719 203.617188 L 215.953125 205.367188 L 211.265625 205.367188 L 212.132812 197.121094 Z M 214.347656 197.121094 " fill-opacity="1" fill-rule="nonzero"/><path fill="#ffffff" d="M 220.625 205.453125 C 218.367188 205.453125 216.722656 203.699219 216.976562 201.214844 C 217.242188 198.730469 219.253906 196.996094 221.507812 196.996094 C 223.777344 196.996094 225.402344 198.738281 225.144531 201.214844 C 224.882812 203.699219 222.878906 205.453125 220.625 205.453125 Z M 220.851562 203.324219 C 221.992188 203.324219 222.769531 202.492188 222.898438 201.222656 C 223.035156 199.925781 222.433594 199.105469 221.289062 199.105469 C 220.140625 199.105469 219.371094 199.925781 219.234375 201.222656 C 219.105469 202.492188 219.691406 203.324219 220.851562 203.324219 Z M 220.851562 203.324219 " fill-opacity="1" fill-rule="nonzero"/><path fill="#ffffff" d="M 233.753906 199.835938 L 231.367188 199.835938 C 231.167969 199.40625 230.738281 199.160156 230.125 199.160156 C 229.011719 199.160156 228.242188 199.964844 228.117188 201.230469 C 227.96875 202.648438 228.589844 203.40625 229.898438 203.40625 C 230.664062 203.40625 231.269531 203.03125 231.671875 202.320312 L 229.449219 202.320312 L 229.625 200.667969 L 233.753906 200.667969 L 233.515625 202.886719 C 232.914062 204.089844 231.542969 205.425781 229.46875 205.425781 C 227.027344 205.425781 225.601562 203.6875 225.867188 201.222656 C 226.125 198.765625 227.898438 197.03125 230.335938 197.03125 C 232.355469 197.039062 233.617188 198.117188 233.753906 199.835938 Z M 233.753906 199.835938 " fill-opacity="1" fill-rule="nonzero"/><path fill="#ffffff" d="M 235.125 197.121094 L 237.335938 197.121094 L 236.46875 205.367188 L 234.257812 205.367188 Z M 235.125 197.121094 " fill-opacity="1" fill-rule="nonzero"/><path fill="#ffffff" d="M 245.980469 197.121094 L 245.113281 205.367188 L 242.898438 205.367188 L 240.433594 200.757812 L 239.949219 205.367188 L 237.738281 205.367188 L 238.605469 197.121094 L 240.816406 197.121094 L 243.273438 201.789062 L 243.769531 197.121094 Z M 245.980469 197.121094 " fill-opacity="1" fill-rule="nonzero"/><path fill="#ffffff" d="M 255.964844 118.46875 C 254.570312 128.742188 244.828125 137.636719 234.320312 138.265625 C 223.929688 138.886719 216.820312 131.179688 218.3125 121.105469 C 219.792969 111.105469 229.238281 102.386719 239.527344 101.554688 C 249.9375 100.722656 257.347656 108.265625 255.964844 118.46875 Z M 255.964844 118.46875 " fill-opacity="1" fill-rule="nonzero"/><path fill="#192351" d="M 233.140625 138.640625 C 228.480469 138.640625 224.398438 136.96875 221.546875 133.855469 C 218.511719 130.550781 217.242188 126 217.972656 121.0625 C 219.472656 110.960938 229.121094 102.066406 239.492188 101.234375 C 244.738281 100.816406 249.351562 102.433594 252.539062 105.792969 C 255.628906 109.050781 256.953125 113.5625 256.285156 118.511719 C 254.871094 128.953125 245.019531 137.957031 234.328125 138.605469 C 233.9375 138.621094 233.535156 138.640625 233.140625 138.640625 Z M 241.101562 101.828125 C 240.589844 101.828125 240.078125 101.847656 239.546875 101.894531 C 229.46875 102.707031 220.074219 111.34375 218.621094 121.160156 C 217.917969 125.902344 219.132812 130.25 222.03125 133.417969 C 224.980469 136.640625 229.347656 138.246094 234.292969 137.945312 C 244.683594 137.324219 254.257812 128.566406 255.628906 118.429688 C 256.269531 113.691406 255.007812 109.363281 252.054688 106.25 C 249.34375 103.371094 245.484375 101.828125 241.101562 101.828125 Z M 241.101562 101.828125 " fill-opacity="1" fill-rule="nonzero"/><path fill="#192351" d="M 243.769531 114.75 C 243.292969 118.066406 240.140625 120.960938 236.730469 121.1875 C 233.34375 121.425781 230.992188 118.933594 231.476562 115.636719 C 231.960938 112.347656 235.085938 109.480469 238.46875 109.226562 C 241.859375 108.96875 244.242188 111.445312 243.769531 114.75 Z M 243.769531 114.75 " fill-opacity="1" fill-rule="nonzero"/><path fill="#192351" d="M 245.578125 129.800781 L 225.320312 131.105469 L 226.070312 126.027344 C 226.316406 124.367188 227.878906 122.933594 229.570312 122.816406 L 243.605469 121.847656 C 245.320312 121.726562 246.527344 122.988281 246.289062 124.667969 Z M 245.578125 129.800781 " fill-opacity="1" fill-rule="nonzero"/><path fill="#ffffff" d="M 277.953125 177.890625 L 181.1875 181.46875 L 183.289062 168.292969 L 279.742188 164 Z M 277.953125 177.890625 " fill-opacity="1" fill-rule="nonzero"/><path fill="#192351" d="M 217.167969 173.160156 L 216.300781 174.492188 L 214.335938 174.492188 L 216.328125 171.746094 L 214.820312 169.195312 L 216.832031 169.195312 L 217.609375 170.53125 L 218.484375 169.195312 L 220.449219 169.195312 L 218.421875 171.898438 L 219.957031 174.503906 L 217.945312 174.503906 Z M 217.167969 173.160156 " fill-opacity="1" fill-rule="nonzero"/><path fill="#192351" d="M 222.898438 173.160156 L 222.03125 174.492188 L 220.066406 174.492188 L 222.058594 171.746094 L 220.550781 169.195312 L 222.558594 169.195312 L 223.335938 170.53125 L 224.214844 169.195312 L 226.179688 169.195312 L 224.148438 171.898438 L 225.683594 174.503906 L 223.675781 174.503906 Z M 222.898438 173.160156 " fill-opacity="1" fill-rule="nonzero"/><path fill="#192351" d="M 228.628906 173.160156 L 227.757812 174.492188 L 225.796875 174.492188 L 227.785156 171.746094 L 226.277344 169.195312 L 228.289062 169.195312 L 229.066406 170.53125 L 229.941406 169.195312 L 231.90625 169.195312 L 229.878906 171.898438 L 231.414062 174.503906 L 229.402344 174.503906 Z M 228.628906 173.160156 " fill-opacity="1" fill-rule="nonzero"/><path fill="#192351" d="M 234.355469 173.160156 L 233.488281 174.492188 L 231.523438 174.492188 L 233.515625 171.746094 L 232.007812 169.195312 L 234.019531 169.195312 L 234.796875 170.53125 L 235.671875 169.195312 L 237.636719 169.195312 L 235.609375 171.898438 L 237.144531 174.503906 L 235.132812 174.503906 Z M 234.355469 173.160156 " fill-opacity="1" fill-rule="nonzero"/><path fill="#192351" d="M 240.085938 173.160156 L 239.21875 174.492188 L 237.253906 174.492188 L 239.246094 171.746094 L 237.738281 169.195312 L 239.746094 169.195312 L 240.523438 170.53125 L 241.402344 169.195312 L 243.367188 169.195312 L 241.335938 171.898438 L 242.871094 174.503906 L 240.863281 174.503906 Z M 240.085938 173.160156 " fill-opacity="1" fill-rule="nonzero"/><path fill="#192351" d="M 245.816406 173.160156 L 244.945312 174.492188 L 242.984375 174.492188 L 244.972656 171.746094 L 243.464844 169.195312 L 245.476562 169.195312 L 246.253906 170.53125 L 247.128906 169.195312 L 249.09375 169.195312 L 247.066406 171.898438 L 248.601562 174.503906 L 246.589844 174.503906 Z M 245.816406 173.160156 " fill-opacity="1" fill-rule="nonzero"/><path fill="#ffffff" d="M 280.582031 157.40625 L 184.292969 162.039062 L 186.375 149.03125 L 282.347656 143.710938 Z M 280.582031 157.40625 " fill-opacity="1" fill-rule="nonzero"/><path fill="#dae4fe" d="M 255.730469 152.8125 L 208.84375 155.214844 L 209.128906 153.378906 L 255.984375 150.933594 Z M 255.730469 152.8125 " fill-opacity="1" fill-rule="nonzero"/><path fill="#192351" d="M 328.351562 220.570312 C 329.050781 221.285156 329.707031 222.035156 330.324219 222.816406 C 330.941406 223.601562 331.519531 224.414062 332.054688 225.261719 C 332.589844 226.105469 333.082031 226.976562 333.527344 227.875 C 333.972656 228.773438 334.375 229.691406 334.726562 230.636719 C 335.082031 231.578125 335.386719 232.539062 335.644531 233.515625 C 335.902344 234.492188 336.109375 235.484375 336.265625 236.484375 C 336.425781 237.488281 336.535156 238.5 336.59375 239.519531 C 336.648438 240.539062 336.65625 241.5625 336.613281 242.585938 C 336.574219 243.613281 336.480469 244.636719 336.335938 245.660156 C 336.191406 246.679688 336 247.695312 335.757812 248.707031 C 335.515625 249.714844 335.226562 250.710938 334.886719 251.695312 C 334.546875 252.683594 334.160156 253.652344 333.726562 254.605469 C 333.296875 255.558594 332.820312 256.488281 332.296875 257.402344 C 331.773438 258.3125 331.210938 259.199219 330.605469 260.058594 C 330 260.917969 329.351562 261.75 328.667969 262.550781 C 327.984375 263.355469 327.261719 264.121094 326.507812 264.859375 C 325.75 265.59375 324.960938 266.292969 324.140625 266.953125 C 323.320312 267.613281 322.46875 268.238281 321.59375 268.816406 C 320.714844 269.398438 319.8125 269.9375 318.886719 270.433594 C 317.960938 270.929688 317.015625 271.382812 316.050781 271.785156 C 315.085938 272.191406 314.105469 272.550781 313.109375 272.863281 C 312.113281 273.171875 311.109375 273.433594 310.09375 273.648438 C 309.078125 273.863281 308.058594 274.027344 307.03125 274.140625 C 306.003906 274.257812 304.976562 274.320312 303.949219 274.335938 C 302.921875 274.347656 301.902344 274.3125 300.882812 274.226562 C 299.863281 274.140625 298.855469 274.003906 297.855469 273.816406 C 296.859375 273.632812 295.875 273.394531 294.902344 273.113281 C 293.933594 272.828125 292.980469 272.496094 292.050781 272.117188 C 291.117188 271.738281 290.207031 271.3125 289.320312 270.839844 C 288.4375 270.367188 287.578125 269.855469 286.746094 269.296875 C 285.917969 268.738281 285.117188 268.140625 284.351562 267.5 C 283.585938 266.859375 282.855469 266.183594 282.15625 265.46875 C 281.460938 264.75 280.804688 264.003906 280.1875 263.21875 C 279.566406 262.433594 278.992188 261.621094 278.457031 260.773438 C 277.921875 259.929688 277.429688 259.058594 276.984375 258.160156 C 276.539062 257.261719 276.136719 256.34375 275.785156 255.398438 C 275.429688 254.457031 275.125 253.5 274.867188 252.519531 C 274.609375 251.542969 274.402344 250.554688 274.242188 249.550781 C 274.085938 248.546875 273.976562 247.535156 273.917969 246.515625 C 273.859375 245.496094 273.851562 244.472656 273.894531 243.449219 C 273.9375 242.421875 274.03125 241.398438 274.175781 240.375 C 274.316406 239.355469 274.511719 238.339844 274.753906 237.332031 C 274.996094 236.320312 275.285156 235.324219 275.625 234.339844 C 275.964844 233.351562 276.351562 232.382812 276.78125 231.429688 C 277.214844 230.476562 277.691406 229.546875 278.214844 228.632812 C 278.734375 227.722656 279.300781 226.835938 279.90625 225.976562 C 280.511719 225.117188 281.15625 224.285156 281.84375 223.484375 C 282.527344 222.679688 283.246094 221.914062 284.003906 221.175781 C 284.761719 220.441406 285.550781 219.742188 286.371094 219.082031 C 287.191406 218.421875 288.039062 217.800781 288.917969 217.21875 C 289.796875 216.636719 290.699219 216.097656 291.625 215.601562 C 292.550781 215.105469 293.496094 214.65625 294.460938 214.25 C 295.425781 213.84375 296.40625 213.484375 297.402344 213.175781 C 298.394531 212.863281 299.402344 212.601562 300.417969 212.386719 C 301.433594 212.171875 302.453125 212.007812 303.480469 211.894531 C 304.507812 211.777344 305.535156 211.714844 306.5625 211.699219 C 307.585938 211.6875 308.609375 211.722656 309.628906 211.808594 C 310.644531 211.894531 311.65625 212.03125 312.652344 212.21875 C 313.652344 212.40625 314.636719 212.640625 315.609375 212.925781 C 316.578125 213.207031 317.53125 213.539062 318.460938 213.917969 C 319.394531 214.300781 320.304688 214.722656 321.1875 215.195312 C 322.074219 215.667969 322.933594 216.179688 323.761719 216.738281 C 324.59375 217.296875 325.390625 217.894531 326.160156 218.535156 C 326.925781 219.175781 327.65625 219.855469 328.351562 220.570312 Z M 328.351562 220.570312 " fill-opacity="1" fill-rule="nonzero"/><path fill="#ffffff" d="M 324.175781 218.222656 C 324.871094 218.9375 325.527344 219.6875 326.148438 220.46875 C 326.765625 221.253906 327.34375 222.066406 327.878906 222.914062 C 328.414062 223.757812 328.902344 224.628906 329.351562 225.527344 C 329.796875 226.425781 330.195312 227.34375 330.550781 228.289062 C 330.902344 229.230469 331.210938 230.191406 331.464844 231.167969 C 331.722656 232.144531 331.933594 233.132812 332.089844 234.136719 C 332.25 235.140625 332.355469 236.152344 332.414062 237.171875 C 332.472656 238.191406 332.480469 239.214844 332.4375 240.238281 C 332.394531 241.265625 332.300781 242.289062 332.160156 243.3125 C 332.015625 244.332031 331.824219 245.347656 331.582031 246.355469 C 331.339844 247.367188 331.046875 248.363281 330.707031 249.347656 C 330.371094 250.335938 329.984375 251.304688 329.550781 252.257812 C 329.117188 253.210938 328.640625 254.140625 328.121094 255.054688 C 327.597656 255.964844 327.035156 256.851562 326.429688 257.710938 C 325.820312 258.570312 325.175781 259.402344 324.492188 260.203125 C 323.808594 261.007812 323.085938 261.773438 322.332031 262.511719 C 321.574219 263.246094 320.785156 263.945312 319.964844 264.605469 C 319.144531 265.265625 318.292969 265.886719 317.414062 266.46875 C 316.539062 267.050781 315.636719 267.589844 314.710938 268.085938 C 313.785156 268.582031 312.839844 269.03125 311.875 269.4375 C 310.910156 269.84375 309.929688 270.203125 308.933594 270.511719 C 307.9375 270.824219 306.933594 271.085938 305.917969 271.300781 C 304.902344 271.515625 303.878906 271.679688 302.851562 271.792969 C 301.828125 271.910156 300.800781 271.972656 299.773438 271.988281 C 298.746094 272 297.722656 271.964844 296.707031 271.878906 C 295.6875 271.792969 294.679688 271.65625 293.679688 271.46875 C 292.679688 271.28125 291.695312 271.046875 290.726562 270.761719 C 289.757812 270.480469 288.804688 270.148438 287.871094 269.769531 C 286.9375 269.386719 286.03125 268.964844 285.144531 268.492188 C 284.257812 268.019531 283.402344 267.507812 282.570312 266.949219 C 281.742188 266.390625 280.941406 265.792969 280.175781 265.152344 C 279.410156 264.511719 278.675781 263.835938 277.980469 263.117188 C 277.285156 262.402344 276.628906 261.652344 276.007812 260.871094 C 275.390625 260.085938 274.8125 259.273438 274.277344 258.425781 C 273.742188 257.582031 273.253906 256.710938 272.804688 255.8125 C 272.359375 254.914062 271.960938 253.996094 271.605469 253.050781 C 271.253906 252.109375 270.949219 251.148438 270.691406 250.171875 C 270.433594 249.195312 270.226562 248.203125 270.066406 247.203125 C 269.910156 246.199219 269.800781 245.1875 269.742188 244.167969 C 269.683594 243.148438 269.675781 242.125 269.71875 241.101562 C 269.761719 240.074219 269.855469 239.050781 269.996094 238.027344 C 270.140625 237.007812 270.332031 235.992188 270.574219 234.984375 C 270.820312 233.972656 271.109375 232.976562 271.449219 231.992188 C 271.789062 231.003906 272.171875 230.035156 272.605469 229.082031 C 273.039062 228.128906 273.515625 227.199219 274.035156 226.285156 C 274.558594 225.375 275.121094 224.488281 275.730469 223.628906 C 276.335938 222.769531 276.980469 221.9375 277.664062 221.136719 C 278.351562 220.332031 279.070312 219.566406 279.828125 218.828125 C 280.582031 218.09375 281.371094 217.394531 282.191406 216.734375 C 283.015625 216.074219 283.863281 215.453125 284.742188 214.871094 C 285.617188 214.289062 286.519531 213.75 287.445312 213.253906 C 288.371094 212.757812 289.316406 212.308594 290.285156 211.902344 C 291.25 211.496094 292.230469 211.136719 293.222656 210.828125 C 294.21875 210.515625 295.226562 210.253906 296.242188 210.039062 C 297.257812 209.824219 298.277344 209.660156 299.304688 209.546875 C 300.328125 209.429688 301.355469 209.367188 302.382812 209.351562 C 303.410156 209.339844 304.433594 209.375 305.449219 209.460938 C 306.46875 209.546875 307.476562 209.683594 308.476562 209.871094 C 309.476562 210.058594 310.460938 210.292969 311.429688 210.578125 C 312.402344 210.859375 313.351562 211.191406 314.285156 211.570312 C 315.21875 211.953125 316.125 212.375 317.011719 212.847656 C 317.898438 213.320312 318.757812 213.832031 319.585938 214.390625 C 320.417969 214.949219 321.214844 215.546875 321.980469 216.1875 C 322.75 216.828125 323.480469 217.503906 324.175781 218.222656 Z M 324.175781 218.222656 " fill-opacity="1" fill-rule="nonzero"/><path fill="#192351" d="M 299.324219 272.507812 C 290.816406 272.507812 282.996094 269.203125 277.3125 263.183594 C 271.609375 257.15625 268.730469 249.148438 269.207031 240.628906 C 270.183594 223.085938 285.261719 208.8125 302.8125 208.8125 C 311.320312 208.8125 319.144531 212.117188 324.828125 218.136719 C 330.527344 224.164062 333.40625 232.171875 332.929688 240.691406 C 331.953125 258.234375 316.875 272.507812 299.324219 272.507812 Z M 302.8125 209.863281 C 285.808594 209.863281 271.199219 223.6875 270.257812 240.691406 C 269.800781 248.921875 272.578125 256.65625 278.078125 262.464844 C 283.570312 268.261719 291.117188 271.457031 299.332031 271.457031 C 316.335938 271.457031 330.949219 257.632812 331.890625 240.636719 C 332.347656 232.410156 329.570312 224.675781 324.066406 218.867188 C 318.578125 213.058594 311.027344 209.863281 302.8125 209.863281 Z M 302.8125 209.863281 " fill-opacity="1" fill-rule="nonzero"/><path fill="#4b6fdd" d="M 285.699219 234.738281 L 285.335938 233.980469 L 301.917969 225.386719 L 302.109375 225.496094 L 317.542969 233.980469 L 317.097656 234.738281 L 301.863281 226.371094 Z M 285.699219 234.738281 " fill-opacity="1" fill-rule="nonzero"/><path fill="#4b6fdd" d="M 313.128906 234.355469 L 311.933594 255.90625 L 315.660156 255.90625 L 316.859375 234.355469 Z M 316.265625 236.382812 L 315.285156 253.90625 L 314.773438 253.90625 L 315.753906 236.382812 Z M 315.140625 236.382812 L 314.164062 253.90625 L 313.652344 253.90625 L 314.628906 236.382812 Z M 314.015625 236.382812 L 313.039062 253.90625 L 312.527344 253.90625 L 313.503906 236.382812 Z M 314.015625 236.382812 " fill-opacity="1" fill-rule="nonzero"/><path fill="#4b6fdd" d="M 317.261719 235.421875 L 312.617188 235.421875 L 312.683594 234.355469 L 317.316406 234.355469 Z M 317.261719 235.421875 " fill-opacity="1" fill-rule="nonzero"/><path fill="#4b6fdd" d="M 316.117188 255.933594 L 311.476562 255.933594 L 311.539062 254.875 L 316.171875 254.875 Z M 316.117188 255.933594 " fill-opacity="1" fill-rule="nonzero"/><path fill="#4b6fdd" d="M 307.089844 234.355469 L 305.894531 255.90625 L 309.621094 255.90625 L 310.820312 234.355469 Z M 310.234375 236.382812 L 309.257812 253.90625 L 308.746094 253.90625 L 309.722656 236.382812 Z M 309.101562 236.382812 L 308.125 253.90625 L 307.613281 253.90625 L 308.589844 236.382812 Z M 307.976562 236.382812 L 307 253.90625 L 306.488281 253.90625 L 307.464844 236.382812 Z M 307.976562 236.382812 " fill-opacity="1" fill-rule="nonzero"/><path fill="#4b6fdd" d="M 311.222656 235.421875 L 306.578125 235.421875 L 306.644531 234.355469 L 311.277344 234.355469 Z M 311.222656 235.421875 " fill-opacity="1" fill-rule="nonzero"/><path fill="#4b6fdd" d="M 310.078125 255.933594 L 305.4375 255.933594 L 305.5 254.875 L 310.132812 254.875 Z M 310.078125 255.933594 " fill-opacity="1" fill-rule="nonzero"/><path fill="#4b6fdd" d="M 292.855469 234.355469 L 291.65625 255.90625 L 295.386719 255.90625 L 296.582031 234.355469 Z M 295.988281 236.382812 L 295.011719 253.90625 L 294.5 253.90625 L 295.476562 236.382812 Z M 294.863281 236.382812 L 293.886719 253.90625 L 293.375 253.90625 L 294.351562 236.382812 Z M 293.742188 236.382812 L 292.761719 253.90625 L 292.25 253.90625 L 293.230469 236.382812 Z M 293.742188 236.382812 " fill-opacity="1" fill-rule="nonzero"/><path fill="#4b6fdd" d="M 296.976562 235.421875 L 292.34375 235.421875 L 292.398438 234.355469 L 297.039062 234.355469 Z M 296.976562 235.421875 " fill-opacity="1" fill-rule="nonzero"/><path fill="#4b6fdd" d="M 295.832031 255.933594 L 291.199219 255.933594 L 291.253906 254.875 L 295.898438 254.875 Z M 295.832031 255.933594 " fill-opacity="1" fill-rule="nonzero"/><path fill="#4b6fdd" d="M 286.816406 234.355469 L 285.617188 255.90625 L 289.347656 255.90625 L 290.542969 234.355469 Z M 288.824219 236.382812 L 287.847656 253.90625 L 287.335938 253.90625 L 288.3125 236.382812 Z M 287.699219 236.382812 L 286.722656 253.90625 L 286.210938 253.90625 L 287.1875 236.382812 Z M 287.699219 236.382812 " fill-opacity="1" fill-rule="nonzero"/><path fill="#4b6fdd" d="M 290.9375 235.421875 L 286.304688 235.421875 L 286.359375 234.355469 L 291 234.355469 Z M 290.9375 235.421875 " fill-opacity="1" fill-rule="nonzero"/><path fill="#4b6fdd" d="M 289.792969 255.933594 L 285.160156 255.933594 L 285.214844 254.875 L 289.859375 254.875 Z M 289.792969 255.933594 " fill-opacity="1" fill-rule="nonzero"/><path fill="#4b6fdd" d="M 303.753906 245.558594 L 303.1875 255.761719 C 303.1875 255.84375 303.117188 255.90625 303.035156 255.90625 L 302.496094 255.90625 C 302.558594 255.90625 302.613281 255.851562 302.613281 255.789062 L 303.179688 245.625 C 303.242188 244.417969 302.320312 243.441406 301.113281 243.441406 C 299.910156 243.441406 298.875 244.417969 298.804688 245.625 L 298.238281 255.789062 C 298.238281 255.851562 298.28125 255.90625 298.347656 255.90625 L 297.808594 255.90625 C 297.726562 255.90625 297.671875 255.84375 297.671875 255.761719 L 298.238281 245.558594 C 298.320312 244.042969 299.625 242.8125 301.140625 242.8125 C 302.660156 242.8125 303.835938 244.042969 303.753906 245.558594 Z M 303.753906 245.558594 " fill-opacity="1" fill-rule="nonzero"/><path fill="#4b6fdd" d="M 301.535156 235.925781 C 300.019531 235.925781 298.710938 237.15625 298.628906 238.675781 L 298.539062 240.335938 C 298.539062 240.417969 298.59375 240.480469 298.675781 240.480469 L 303.890625 240.480469 C 303.976562 240.480469 304.039062 240.417969 304.046875 240.335938 L 304.140625 238.675781 C 304.222656 237.15625 303.050781 235.925781 301.535156 235.925781 Z M 301.535156 235.925781 " fill-opacity="1" fill-rule="nonzero"/><path fill="#4b6fdd" d="M 306.671875 241.96875 L 296.164062 241.96875 L 296.179688 241.550781 L 306.699219 241.550781 Z M 306.671875 241.96875 " fill-opacity="1" fill-rule="nonzero"/><path fill="#4b6fdd" d="M 317.488281 234.847656 L 285.289062 234.847656 C 285.03125 234.847656 284.839844 234.648438 284.859375 234.390625 L 284.859375 234.363281 C 284.878906 234.109375 285.085938 233.90625 285.34375 233.90625 L 317.542969 233.90625 C 317.800781 233.90625 317.992188 234.109375 317.972656 234.363281 L 317.972656 234.390625 C 317.953125 234.648438 317.746094 234.847656 317.488281 234.847656 Z M 317.488281 234.847656 " fill-opacity="1" fill-rule="nonzero"/><path fill="#4b6fdd" d="M 301.488281 232.179688 C 300.941406 232.125 300.546875 231.816406 300.566406 231.277344 L 301.304688 231.285156 C 301.316406 231.460938 301.390625 231.570312 301.527344 231.613281 L 301.570312 230.949219 C 301.140625 230.828125 300.601562 230.691406 300.648438 230.027344 C 300.683594 229.496094 301.132812 229.1875 301.691406 229.160156 L 301.707031 228.8125 L 301.972656 228.8125 L 301.957031 229.160156 C 302.511719 229.214844 302.851562 229.515625 302.851562 230.042969 L 302.101562 230.035156 C 302.09375 229.878906 302.027344 229.777344 301.910156 229.734375 L 301.863281 230.390625 C 302.292969 230.519531 302.839844 230.648438 302.804688 231.304688 C 302.777344 231.761719 302.394531 232.164062 301.746094 232.179688 L 301.726562 232.527344 L 301.460938 232.527344 Z M 301.609375 230.300781 L 301.644531 229.714844 C 301.488281 229.742188 301.390625 229.835938 301.378906 230 C 301.378906 230.144531 301.472656 230.234375 301.609375 230.300781 Z M 301.828125 231.03125 L 301.789062 231.632812 C 301.957031 231.605469 302.066406 231.496094 302.074219 231.332031 C 302.082031 231.175781 301.984375 231.09375 301.828125 231.03125 Z M 301.828125 231.03125 " fill-opacity="1" fill-rule="nonzero"/><path fill="#192351" d="M 164.070312 49.785156 C 164.070312 49.785156 153.71875 58.214844 134.082031 57.683594 L 134.082031 90.667969 C 134.082031 90.667969 147.488281 121.710938 164.089844 121.710938 C 180.691406 121.710938 194.0625 90.667969 194.0625 90.667969 L 194.0625 57.683594 C 174.425781 58.214844 164.070312 49.785156 164.070312 49.785156 Z M 164.070312 49.785156 " fill-opacity="1" fill-rule="nonzero"/><path fill="#4b6fdd" d="M 191.292969 60.496094 L 191.292969 90.03125 C 190.351562 92.074219 187.273438 98.496094 182.859375 104.804688 C 178.28125 111.34375 171.308594 119.132812 164.082031 119.132812 L 164.0625 119.132812 C 156.84375 119.125 149.863281 111.335938 145.285156 104.796875 C 140.863281 98.496094 137.773438 92.074219 136.84375 90.019531 L 136.84375 60.488281 C 150.824219 60.113281 160.03125 55.59375 164.0625 53.117188 C 168.101562 55.601562 177.3125 60.121094 191.292969 60.496094 Z M 191.292969 60.496094 " fill-opacity="1" fill-rule="nonzero"/><path fill="#192351" d="M 191.292969 60.496094 L 191.292969 90.03125 C 190.351562 92.074219 187.273438 98.496094 182.859375 104.804688 C 178.28125 111.34375 171.308594 119.132812 164.082031 119.132812 L 164.0625 119.132812 L 164.0625 53.117188 C 168.101562 55.601562 177.3125 60.121094 191.292969 60.496094 Z M 191.292969 60.496094 " fill-opacity="0.2" fill-rule="nonzero"/><path fill="#ffffff" d="M 155.015625 93.191406 L 150.15625 82.421875 C 149.660156 81.335938 150.144531 80.058594 151.234375 79.574219 C 152.320312 79.089844 153.601562 79.566406 154.085938 80.652344 L 157.027344 87.179688 L 178.015625 75.746094 C 179.058594 75.171875 180.371094 75.566406 180.9375 76.605469 C 181.503906 77.65625 181.121094 78.960938 180.082031 79.527344 Z M 155.015625 93.191406 " fill-opacity="1" fill-rule="nonzero"/><path fill="#192351" d="M 0.0351562 345.390625 L 360.34375 345.390625 L 360.34375 348.972656 L 0.0351562 348.972656 Z M 0.0351562 345.390625 " fill-opacity="1" fill-rule="nonzero"/><path fill="#4b6fdd" d="M 204.3125 294.042969 L 204.3125 304.015625 C 204.3125 304.917969 203.574219 305.648438 202.660156 305.648438 L 152.648438 305.648438 C 151.746094 305.648438 151.003906 304.910156 151.003906 304.015625 L 151.003906 294.042969 C 151.003906 293.136719 151.746094 292.40625 152.648438 292.40625 L 202.660156 292.40625 C 203.574219 292.40625 204.3125 293.148438 204.3125 294.042969 Z M 204.3125 294.042969 " fill-opacity="1" fill-rule="nonzero"/><path fill="#192351" d="M 204.3125 303.128906 L 204.3125 304.015625 C 204.3125 304.917969 203.574219 305.648438 202.660156 305.648438 L 152.648438 305.648438 C 151.746094 305.648438 151.003906 304.910156 151.003906 304.015625 L 151.003906 303.128906 Z M 204.3125 303.128906 " fill-opacity="1" fill-rule="nonzero"/><path fill="#192351" d="M 156.699219 301.996094 C 156.503906 301.996094 156.359375 301.839844 156.359375 301.660156 L 156.359375 295.8125 C 156.359375 295.621094 156.515625 295.476562 156.699219 295.476562 C 156.878906 295.476562 157.035156 295.632812 157.035156 295.8125 L 157.035156 301.660156 C 157.046875 301.839844 156.890625 301.996094 156.699219 301.996094 Z M 156.699219 301.996094 " fill-opacity="1" fill-rule="nonzero"/><path fill="#192351" d="M 163.6875 301.996094 C 163.496094 301.996094 163.351562 301.839844 163.351562 301.660156 L 163.351562 295.8125 C 163.351562 295.621094 163.503906 295.476562 163.6875 295.476562 C 163.871094 295.476562 164.027344 295.632812 164.027344 295.8125 L 164.027344 301.660156 C 164.027344 301.839844 163.878906 301.996094 163.6875 301.996094 Z M 163.6875 301.996094 " fill-opacity="1" fill-rule="nonzero"/><path fill="#192351" d="M 170.679688 301.996094 C 170.484375 301.996094 170.339844 301.839844 170.339844 301.660156 L 170.339844 295.8125 C 170.339844 295.621094 170.496094 295.476562 170.679688 295.476562 C 170.859375 295.476562 171.015625 295.632812 171.015625 295.8125 L 171.015625 301.660156 C 171.015625 301.839844 170.859375 301.996094 170.679688 301.996094 Z M 170.679688 301.996094 " fill-opacity="1" fill-rule="nonzero"/><path fill="#192351" d="M 177.660156 301.996094 C 177.46875 301.996094 177.320312 301.839844 177.320312 301.660156 L 177.320312 295.8125 C 177.320312 295.621094 177.476562 295.476562 177.660156 295.476562 C 177.839844 295.476562 177.996094 295.632812 177.996094 295.8125 L 177.996094 301.660156 C 178.007812 301.839844 177.851562 301.996094 177.660156 301.996094 Z M 177.660156 301.996094 " fill-opacity="1" fill-rule="nonzero"/><path fill="#192351" d="M 184.648438 301.996094 C 184.457031 301.996094 184.3125 301.839844 184.3125 301.660156 L 184.3125 295.8125 C 184.3125 295.621094 184.464844 295.476562 184.648438 295.476562 C 184.832031 295.476562 184.988281 295.632812 184.988281 295.8125 L 184.988281 301.660156 C 184.988281 301.839844 184.839844 301.996094 184.648438 301.996094 Z M 184.648438 301.996094 " fill-opacity="1" fill-rule="nonzero"/><path fill="#192351" d="M 191.640625 301.996094 C 191.449219 301.996094 191.300781 301.839844 191.300781 301.660156 L 191.300781 295.8125 C 191.300781 295.621094 191.457031 295.476562 191.640625 295.476562 C 191.820312 295.476562 191.976562 295.632812 191.976562 295.8125 L 191.976562 301.660156 C 191.976562 301.839844 191.820312 301.996094 191.640625 301.996094 Z M 191.640625 301.996094 " fill-opacity="1" fill-rule="nonzero"/><path fill="#192351" d="M 198.621094 301.996094 C 198.429688 301.996094 198.28125 301.839844 198.28125 301.660156 L 198.28125 295.8125 C 198.28125 295.621094 198.4375 295.476562 198.621094 295.476562 C 198.804688 295.476562 198.957031 295.632812 198.957031 295.8125 L 198.957031 301.660156 C 198.96875 301.839844 198.8125 301.996094 198.621094 301.996094 Z M 198.621094 301.996094 " fill-opacity="1" fill-rule="nonzero"/><path fill="#4b6fdd" d="M 197.925781 307.292969 L 197.925781 317.265625 C 197.925781 318.167969 197.1875 318.898438 196.273438 318.898438 L 146.261719 318.898438 C 145.359375 318.898438 144.617188 318.160156 144.617188 317.265625 L 144.617188 307.292969 C 144.617188 306.390625 145.359375 305.65625 146.261719 305.65625 L 196.273438 305.65625 C 197.195312 305.65625 197.925781 306.390625 197.925781 307.292969 Z M 197.925781 307.292969 " fill-opacity="1" fill-rule="nonzero"/><path fill="#192351" d="M 197.925781 316.378906 L 197.925781 317.265625 C 197.925781 318.167969 197.1875 318.898438 196.273438 318.898438 L 146.261719 318.898438 C 145.359375 318.898438 144.617188 318.160156 144.617188 317.265625 L 144.617188 316.378906 Z M 197.925781 316.378906 " fill-opacity="1" fill-rule="nonzero"/><path fill="#192351" d="M 150.320312 315.246094 C 150.128906 315.246094 149.980469 315.089844 149.980469 314.910156 L 149.980469 309.0625 C 149.980469 308.871094 150.136719 308.726562 150.320312 308.726562 C 150.503906 308.726562 150.65625 308.882812 150.65625 309.0625 L 150.65625 314.910156 C 150.65625 315.089844 150.503906 315.246094 150.320312 315.246094 Z M 150.320312 315.246094 " fill-opacity="1" fill-rule="nonzero"/><path fill="#192351" d="M 157.308594 315.246094 C 157.117188 315.246094 156.972656 315.089844 156.972656 314.910156 L 156.972656 309.0625 C 156.972656 308.871094 157.128906 308.726562 157.308594 308.726562 C 157.492188 308.726562 157.648438 308.882812 157.648438 309.0625 L 157.648438 314.910156 C 157.648438 315.089844 157.492188 315.246094 157.308594 315.246094 Z M 157.308594 315.246094 " fill-opacity="1" fill-rule="nonzero"/><path fill="#192351" d="M 164.289062 315.246094 C 164.097656 315.246094 163.953125 315.089844 163.953125 314.910156 L 163.953125 309.0625 C 163.953125 308.871094 164.109375 308.726562 164.289062 308.726562 C 164.472656 308.726562 164.628906 308.882812 164.628906 309.0625 L 164.628906 314.910156 C 164.636719 315.089844 164.484375 315.246094 164.289062 315.246094 Z M 164.289062 315.246094 " fill-opacity="1" fill-rule="nonzero"/><path fill="#192351" d="M 171.28125 315.246094 C 171.089844 315.246094 170.941406 315.089844 170.941406 314.910156 L 170.941406 309.0625 C 170.941406 308.871094 171.097656 308.726562 171.28125 308.726562 C 171.464844 308.726562 171.621094 308.882812 171.621094 309.0625 L 171.621094 314.910156 C 171.621094 315.089844 171.472656 315.246094 171.28125 315.246094 Z M 171.28125 315.246094 " fill-opacity="1" fill-rule="nonzero"/><path fill="#192351" d="M 178.269531 315.246094 C 178.078125 315.246094 177.933594 315.089844 177.933594 314.910156 L 177.933594 309.0625 C 177.933594 308.871094 178.089844 308.726562 178.269531 308.726562 C 178.453125 308.726562 178.609375 308.882812 178.609375 309.0625 L 178.609375 314.910156 C 178.609375 315.089844 178.453125 315.246094 178.269531 315.246094 Z M 178.269531 315.246094 " fill-opacity="1" fill-rule="nonzero"/><path fill="#192351" d="M 185.253906 315.246094 C 185.058594 315.246094 184.914062 315.089844 184.914062 314.910156 L 184.914062 309.0625 C 184.914062 308.871094 185.070312 308.726562 185.253906 308.726562 C 185.433594 308.726562 185.589844 308.882812 185.589844 309.0625 L 185.589844 314.910156 C 185.597656 315.089844 185.445312 315.246094 185.253906 315.246094 Z M 185.253906 315.246094 " fill-opacity="1" fill-rule="nonzero"/><path fill="#192351" d="M 192.242188 315.246094 C 192.050781 315.246094 191.902344 315.089844 191.902344 314.910156 L 191.902344 309.0625 C 191.902344 308.871094 192.058594 308.726562 192.242188 308.726562 C 192.425781 308.726562 192.582031 308.882812 192.582031 309.0625 L 192.582031 314.910156 C 192.582031 315.089844 192.433594 315.246094 192.242188 315.246094 Z M 192.242188 315.246094 " fill-opacity="1" fill-rule="nonzero"/><path fill="#4b6fdd" d="M 202.386719 320.542969 L 202.386719 330.515625 C 202.386719 331.417969 201.644531 332.152344 200.730469 332.152344 L 150.722656 332.152344 C 149.816406 332.152344 149.078125 331.410156 149.078125 330.515625 L 149.078125 320.542969 C 149.078125 319.640625 149.816406 318.910156 150.722656 318.910156 L 200.730469 318.910156 C 201.644531 318.898438 202.386719 319.640625 202.386719 320.542969 Z M 202.386719 320.542969 " fill-opacity="1" fill-rule="nonzero"/><path fill="#192351" d="M 202.386719 329.628906 L 202.386719 330.515625 C 202.386719 331.417969 201.644531 332.152344 200.730469 332.152344 L 150.722656 332.152344 C 149.816406 332.152344 149.078125 331.410156 149.078125 330.515625 L 149.078125 329.628906 Z M 202.386719 329.628906 " fill-opacity="1" fill-rule="nonzero"/><path fill="#192351" d="M 154.769531 328.488281 C 154.578125 328.488281 154.433594 328.332031 154.433594 328.152344 L 154.433594 322.304688 C 154.433594 322.113281 154.585938 321.96875 154.769531 321.96875 C 154.953125 321.96875 155.109375 322.125 155.109375 322.304688 L 155.109375 328.152344 C 155.117188 328.34375 154.960938 328.488281 154.769531 328.488281 Z M 154.769531 328.488281 " fill-opacity="1" fill-rule="nonzero"/><path fill="#192351" d="M 161.761719 328.488281 C 161.566406 328.488281 161.421875 328.332031 161.421875 328.152344 L 161.421875 322.304688 C 161.421875 322.113281 161.578125 321.96875 161.761719 321.96875 C 161.941406 321.96875 162.097656 322.125 162.097656 322.304688 L 162.097656 328.152344 C 162.105469 328.34375 161.953125 328.488281 161.761719 328.488281 Z M 161.761719 328.488281 " fill-opacity="1" fill-rule="nonzero"/><path fill="#192351" d="M 168.75 328.488281 C 168.558594 328.488281 168.410156 328.332031 168.410156 328.152344 L 168.410156 322.304688 C 168.410156 322.113281 168.566406 321.96875 168.75 321.96875 C 168.933594 321.96875 169.089844 322.125 169.089844 322.304688 L 169.089844 328.152344 C 169.089844 328.34375 168.933594 328.488281 168.75 328.488281 Z M 168.75 328.488281 " fill-opacity="1" fill-rule="nonzero"/><path fill="#192351" d="M 175.730469 328.488281 C 175.539062 328.488281 175.394531 328.332031 175.394531 328.152344 L 175.394531 322.304688 C 175.394531 322.113281 175.546875 321.96875 175.730469 321.96875 C 175.914062 321.96875 176.070312 322.125 176.070312 322.304688 L 176.070312 328.152344 C 176.078125 328.34375 175.921875 328.488281 175.730469 328.488281 Z M 175.730469 328.488281 " fill-opacity="1" fill-rule="nonzero"/><path fill="#192351" d="M 182.722656 328.488281 C 182.527344 328.488281 182.382812 328.332031 182.382812 328.152344 L 182.382812 322.304688 C 182.382812 322.113281 182.539062 321.96875 182.722656 321.96875 C 182.902344 321.96875 183.058594 322.125 183.058594 322.304688 L 183.058594 328.152344 C 183.066406 328.34375 182.914062 328.488281 182.722656 328.488281 Z M 182.722656 328.488281 " fill-opacity="1" fill-rule="nonzero"/><path fill="#192351" d="M 189.710938 328.488281 C 189.519531 328.488281 189.375 328.332031 189.375 328.152344 L 189.375 322.304688 C 189.375 322.113281 189.527344 321.96875 189.710938 321.96875 C 189.894531 321.96875 190.050781 322.125 190.050781 322.304688 L 190.050781 328.152344 C 190.050781 328.34375 189.894531 328.488281 189.710938 328.488281 Z M 189.710938 328.488281 " fill-opacity="1" fill-rule="nonzero"/><path fill="#192351" d="M 196.703125 328.488281 C 196.507812 328.488281 196.363281 328.332031 196.363281 328.152344 L 196.363281 322.304688 C 196.363281 322.113281 196.519531 321.96875 196.703125 321.96875 C 196.882812 321.96875 197.039062 322.125 197.039062 322.304688 L 197.039062 328.152344 C 197.039062 328.34375 196.882812 328.488281 196.703125 328.488281 Z M 196.703125 328.488281 " fill-opacity="1" fill-rule="nonzero"/><path fill="#4b6fdd" d="M 204.3125 333.792969 L 204.3125 343.765625 C 204.3125 344.671875 203.574219 345.402344 202.660156 345.402344 L 152.648438 345.402344 C 151.746094 345.402344 151.003906 344.660156 151.003906 343.765625 L 151.003906 333.792969 C 151.003906 332.890625 151.746094 332.160156 152.648438 332.160156 L 202.660156 332.160156 C 203.574219 332.152344 204.3125 332.890625 204.3125 333.792969 Z M 204.3125 333.792969 " fill-opacity="1" fill-rule="nonzero"/><path fill="#192351" d="M 204.3125 342.871094 L 204.3125 343.757812 C 204.3125 344.660156 203.574219 345.390625 202.660156 345.390625 L 152.648438 345.390625 C 151.746094 345.390625 151.003906 344.652344 151.003906 343.757812 L 151.003906 342.871094 Z M 204.3125 342.871094 " fill-opacity="1" fill-rule="nonzero"/><path fill="#192351" d="M 156.699219 341.738281 C 156.503906 341.738281 156.359375 341.582031 156.359375 341.402344 L 156.359375 335.558594 C 156.359375 335.363281 156.515625 335.21875 156.699219 335.21875 C 156.878906 335.21875 157.035156 335.375 157.035156 335.558594 L 157.035156 341.402344 C 157.046875 341.582031 156.890625 341.738281 156.699219 341.738281 Z M 156.699219 341.738281 " fill-opacity="1" fill-rule="nonzero"/><path fill="#192351" d="M 163.6875 341.738281 C 163.496094 341.738281 163.351562 341.582031 163.351562 341.402344 L 163.351562 335.558594 C 163.351562 335.363281 163.503906 335.21875 163.6875 335.21875 C 163.871094 335.21875 164.027344 335.375 164.027344 335.558594 L 164.027344 341.402344 C 164.027344 341.582031 163.878906 341.738281 163.6875 341.738281 Z M 163.6875 341.738281 " fill-opacity="1" fill-rule="nonzero"/><path fill="#192351" d="M 170.679688 341.738281 C 170.484375 341.738281 170.339844 341.582031 170.339844 341.402344 L 170.339844 335.558594 C 170.339844 335.363281 170.496094 335.21875 170.679688 335.21875 C 170.859375 335.21875 171.015625 335.375 171.015625 335.558594 L 171.015625 341.402344 C 171.015625 341.582031 170.859375 341.738281 170.679688 341.738281 Z M 170.679688 341.738281 " fill-opacity="1" fill-rule="nonzero"/><path fill="#192351" d="M 177.660156 341.738281 C 177.46875 341.738281 177.320312 341.582031 177.320312 341.402344 L 177.320312 335.558594 C 177.320312 335.363281 177.476562 335.21875 177.660156 335.21875 C 177.839844 335.21875 177.996094 335.375 177.996094 335.558594 L 177.996094 341.402344 C 178.007812 341.582031 177.851562 341.738281 177.660156 341.738281 Z M 177.660156 341.738281 " fill-opacity="1" fill-rule="nonzero"/><path fill="#192351" d="M 184.648438 341.738281 C 184.457031 341.738281 184.3125 341.582031 184.3125 341.402344 L 184.3125 335.558594 C 184.3125 335.363281 184.464844 335.21875 184.648438 335.21875 C 184.832031 335.21875 184.988281 335.375 184.988281 335.558594 L 184.988281 341.402344 C 184.988281 341.582031 184.839844 341.738281 184.648438 341.738281 Z M 184.648438 341.738281 " fill-opacity="1" fill-rule="nonzero"/><path fill="#192351" d="M 191.640625 341.738281 C 191.449219 341.738281 191.300781 341.582031 191.300781 341.402344 L 191.300781 335.558594 C 191.300781 335.363281 191.457031 335.21875 191.640625 335.21875 C 191.820312 335.21875 191.976562 335.375 191.976562 335.558594 L 191.976562 341.402344 C 191.976562 341.582031 191.820312 341.738281 191.640625 341.738281 Z M 191.640625 341.738281 " fill-opacity="1" fill-rule="nonzero"/><path fill="#192351" d="M 198.621094 341.738281 C 198.429688 341.738281 198.28125 341.582031 198.28125 341.402344 L 198.28125 335.558594 C 198.28125 335.363281 198.4375 335.21875 198.621094 335.21875 C 198.804688 335.21875 198.957031 335.375 198.957031 335.558594 L 198.957031 341.402344 C 198.96875 341.582031 198.8125 341.738281 198.621094 341.738281 Z M 198.621094 341.738281 " fill-opacity="1" fill-rule="nonzero"/><path fill="#4b6fdd" d="M 212.527344 307.292969 L 212.527344 317.265625 C 212.527344 318.167969 213.265625 318.898438 214.179688 318.898438 L 264.191406 318.898438 C 265.09375 318.898438 265.835938 318.160156 265.835938 317.265625 L 265.835938 307.292969 C 265.835938 306.390625 265.09375 305.65625 264.191406 305.65625 L 214.179688 305.65625 C 213.257812 305.65625 212.527344 306.390625 212.527344 307.292969 Z M 212.527344 307.292969 " fill-opacity="1" fill-rule="nonzero"/><path fill="#192351" d="M 212.527344 316.378906 L 212.527344 317.265625 C 212.527344 318.167969 213.265625 318.898438 214.179688 318.898438 L 264.191406 318.898438 C 265.09375 318.898438 265.835938 318.160156 265.835938 317.265625 L 265.835938 316.378906 Z M 212.527344 316.378906 " fill-opacity="1" fill-rule="nonzero"/><path fill="#192351" d="M 260.132812 315.246094 C 259.941406 315.246094 259.796875 315.089844 259.796875 314.910156 L 259.796875 309.0625 C 259.796875 308.871094 259.949219 308.726562 260.132812 308.726562 C 260.316406 308.726562 260.472656 308.882812 260.472656 309.0625 L 260.472656 314.910156 C 260.480469 315.089844 260.324219 315.246094 260.132812 315.246094 Z M 260.132812 315.246094 " fill-opacity="1" fill-rule="nonzero"/><path fill="#192351" d="M 253.152344 315.246094 C 252.960938 315.246094 252.8125 315.089844 252.8125 314.910156 L 252.8125 309.0625 C 252.8125 308.871094 252.96875 308.726562 253.152344 308.726562 C 253.335938 308.726562 253.492188 308.882812 253.492188 309.0625 L 253.492188 314.910156 C 253.492188 315.089844 253.335938 315.246094 253.152344 315.246094 Z M 253.152344 315.246094 " fill-opacity="1" fill-rule="nonzero"/><path fill="#192351" d="M 246.164062 315.246094 C 245.96875 315.246094 245.824219 315.089844 245.824219 314.910156 L 245.824219 309.0625 C 245.824219 308.871094 245.980469 308.726562 246.164062 308.726562 C 246.34375 308.726562 246.5 308.882812 246.5 309.0625 L 246.5 314.910156 C 246.5 315.089844 246.34375 315.246094 246.164062 315.246094 Z M 246.164062 315.246094 " fill-opacity="1" fill-rule="nonzero"/><path fill="#192351" d="M 239.171875 315.246094 C 238.980469 315.246094 238.835938 315.089844 238.835938 314.910156 L 238.835938 309.0625 C 238.835938 308.871094 238.988281 308.726562 239.171875 308.726562 C 239.355469 308.726562 239.511719 308.882812 239.511719 309.0625 L 239.511719 314.910156 C 239.511719 315.089844 239.363281 315.246094 239.171875 315.246094 Z M 239.171875 315.246094 " fill-opacity="1" fill-rule="nonzero"/><path fill="#192351" d="M 232.183594 315.246094 C 231.988281 315.246094 231.84375 315.089844 231.84375 314.910156 L 231.84375 309.0625 C 231.84375 308.871094 232 308.726562 232.183594 308.726562 C 232.363281 308.726562 232.519531 308.882812 232.519531 309.0625 L 232.519531 314.910156 C 232.527344 315.089844 232.375 315.246094 232.183594 315.246094 Z M 232.183594 315.246094 " fill-opacity="1" fill-rule="nonzero"/><path fill="#192351" d="M 225.199219 315.246094 C 225.007812 315.246094 224.863281 315.089844 224.863281 314.910156 L 224.863281 309.0625 C 224.863281 308.871094 225.019531 308.726562 225.199219 308.726562 C 225.382812 308.726562 225.539062 308.882812 225.539062 309.0625 L 225.539062 314.910156 C 225.539062 315.089844 225.382812 315.246094 225.199219 315.246094 Z M 225.199219 315.246094 " fill-opacity="1" fill-rule="nonzero"/><path fill="#192351" d="M 218.210938 315.246094 C 218.019531 315.246094 217.871094 315.089844 217.871094 314.910156 L 217.871094 309.0625 C 217.871094 308.871094 218.027344 308.726562 218.210938 308.726562 C 218.394531 308.726562 218.550781 308.882812 218.550781 309.0625 L 218.550781 314.910156 C 218.550781 315.089844 218.402344 315.246094 218.210938 315.246094 Z M 218.210938 315.246094 " fill-opacity="1" fill-rule="nonzero"/><path fill="#4b6fdd" d="M 204.449219 320.542969 L 204.449219 330.515625 C 204.449219 331.417969 205.191406 332.152344 206.105469 332.152344 L 256.113281 332.152344 C 257.015625 332.152344 257.757812 331.410156 257.757812 330.515625 L 257.757812 320.542969 C 257.757812 319.640625 257.015625 318.910156 256.113281 318.910156 L 206.105469 318.910156 C 205.191406 318.898438 204.449219 319.640625 204.449219 320.542969 Z M 204.449219 320.542969 " fill-opacity="1" fill-rule="nonzero"/><path fill="#192351" d="M 204.449219 329.628906 L 204.449219 330.515625 C 204.449219 331.417969 205.191406 332.152344 206.105469 332.152344 L 256.113281 332.152344 C 257.015625 332.152344 257.757812 331.410156 257.757812 330.515625 L 257.757812 329.628906 Z M 204.449219 329.628906 " fill-opacity="1" fill-rule="nonzero"/><path fill="#192351" d="M 252.066406 328.488281 C 251.875 328.488281 251.726562 328.332031 251.726562 328.152344 L 251.726562 322.304688 C 251.726562 322.113281 251.882812 321.96875 252.066406 321.96875 C 252.246094 321.96875 252.402344 322.125 252.402344 322.304688 L 252.402344 328.152344 C 252.402344 328.34375 252.257812 328.488281 252.066406 328.488281 Z M 252.066406 328.488281 " fill-opacity="1" fill-rule="nonzero"/><path fill="#192351" d="M 245.074219 328.488281 C 244.882812 328.488281 244.738281 328.332031 244.738281 328.152344 L 244.738281 322.304688 C 244.738281 322.113281 244.890625 321.96875 245.074219 321.96875 C 245.257812 321.96875 245.414062 322.125 245.414062 322.304688 L 245.414062 328.152344 C 245.421875 328.34375 245.265625 328.488281 245.074219 328.488281 Z M 245.074219 328.488281 " fill-opacity="1" fill-rule="nonzero"/><path fill="#192351" d="M 238.09375 328.488281 C 237.902344 328.488281 237.753906 328.332031 237.753906 328.152344 L 237.753906 322.304688 C 237.753906 322.113281 237.910156 321.96875 238.09375 321.96875 C 238.277344 321.96875 238.433594 322.125 238.433594 322.304688 L 238.433594 328.152344 C 238.433594 328.34375 238.277344 328.488281 238.09375 328.488281 Z M 238.09375 328.488281 " fill-opacity="1" fill-rule="nonzero"/><path fill="#192351" d="M 231.105469 328.488281 C 230.910156 328.488281 230.765625 328.332031 230.765625 328.152344 L 230.765625 322.304688 C 230.765625 322.113281 230.921875 321.96875 231.105469 321.96875 C 231.285156 321.96875 231.441406 322.125 231.441406 322.304688 L 231.441406 328.152344 C 231.441406 328.34375 231.285156 328.488281 231.105469 328.488281 Z M 231.105469 328.488281 " fill-opacity="1" fill-rule="nonzero"/><path fill="#192351" d="M 224.113281 328.488281 C 223.921875 328.488281 223.777344 328.332031 223.777344 328.152344 L 223.777344 322.304688 C 223.777344 322.113281 223.929688 321.96875 224.113281 321.96875 C 224.296875 321.96875 224.453125 322.125 224.453125 322.304688 L 224.453125 328.152344 C 224.460938 328.34375 224.304688 328.488281 224.113281 328.488281 Z M 224.113281 328.488281 " fill-opacity="1" fill-rule="nonzero"/><path fill="#192351" d="M 217.125 328.488281 C 216.933594 328.488281 216.785156 328.332031 216.785156 328.152344 L 216.785156 322.304688 C 216.785156 322.113281 216.941406 321.96875 217.125 321.96875 C 217.304688 321.96875 217.460938 322.125 217.460938 322.304688 L 217.460938 328.152344 C 217.472656 328.34375 217.316406 328.488281 217.125 328.488281 Z M 217.125 328.488281 " fill-opacity="1" fill-rule="nonzero"/><path fill="#192351" d="M 210.140625 328.488281 C 209.949219 328.488281 209.804688 328.332031 209.804688 328.152344 L 209.804688 322.304688 C 209.804688 322.113281 209.960938 321.96875 210.140625 321.96875 C 210.324219 321.96875 210.480469 322.125 210.480469 322.304688 L 210.480469 328.152344 C 210.480469 328.34375 210.324219 328.488281 210.140625 328.488281 Z M 210.140625 328.488281 " fill-opacity="1" fill-rule="nonzero"/><path fill="#4b6fdd" d="M 206.140625 333.792969 L 206.140625 343.765625 C 206.140625 344.671875 206.878906 345.402344 207.792969 345.402344 L 257.804688 345.402344 C 258.707031 345.402344 259.449219 344.660156 259.449219 343.765625 L 259.449219 333.792969 C 259.449219 332.890625 258.707031 332.160156 257.804688 332.160156 L 207.792969 332.160156 C 206.878906 332.152344 206.140625 332.890625 206.140625 333.792969 Z M 206.140625 333.792969 " fill-opacity="1" fill-rule="nonzero"/><path fill="#192351" d="M 206.140625 342.871094 L 206.140625 343.757812 C 206.140625 344.660156 206.878906 345.390625 207.792969 345.390625 L 257.804688 345.390625 C 258.707031 345.390625 259.449219 344.652344 259.449219 343.757812 L 259.449219 342.871094 Z M 206.140625 342.871094 " fill-opacity="1" fill-rule="nonzero"/><path fill="#192351" d="M 253.753906 341.738281 C 253.5625 341.738281 253.417969 341.582031 253.417969 341.402344 L 253.417969 335.558594 C 253.417969 335.363281 253.574219 335.21875 253.753906 335.21875 C 253.9375 335.21875 254.09375 335.375 254.09375 335.558594 L 254.09375 341.402344 C 254.09375 341.582031 253.9375 341.738281 253.753906 341.738281 Z M 253.753906 341.738281 " fill-opacity="1" fill-rule="nonzero"/><path fill="#192351" d="M 246.765625 341.738281 C 246.574219 341.738281 246.425781 341.582031 246.425781 341.402344 L 246.425781 335.558594 C 246.425781 335.363281 246.582031 335.21875 246.765625 335.21875 C 246.949219 335.21875 247.101562 335.375 247.101562 335.558594 L 247.101562 341.402344 C 247.101562 341.582031 246.957031 341.738281 246.765625 341.738281 Z M 246.765625 341.738281 " fill-opacity="1" fill-rule="nonzero"/><path fill="#192351" d="M 239.773438 341.738281 C 239.582031 341.738281 239.4375 341.582031 239.4375 341.402344 L 239.4375 335.558594 C 239.4375 335.363281 239.59375 335.21875 239.773438 335.21875 C 239.957031 335.21875 240.113281 335.375 240.113281 335.558594 L 240.113281 341.402344 C 240.121094 341.582031 239.96875 341.738281 239.773438 341.738281 Z M 239.773438 341.738281 " fill-opacity="1" fill-rule="nonzero"/><path fill="#192351" d="M 232.792969 341.738281 C 232.601562 341.738281 232.457031 341.582031 232.457031 341.402344 L 232.457031 335.558594 C 232.457031 335.363281 232.613281 335.21875 232.792969 335.21875 C 232.976562 335.21875 233.132812 335.375 233.132812 335.558594 L 233.132812 341.402344 C 233.132812 341.582031 232.976562 341.738281 232.792969 341.738281 Z M 232.792969 341.738281 " fill-opacity="1" fill-rule="nonzero"/><path fill="#192351" d="M 225.804688 341.738281 C 225.613281 341.738281 225.464844 341.582031 225.464844 341.402344 L 225.464844 335.558594 C 225.464844 335.363281 225.621094 335.21875 225.804688 335.21875 C 225.988281 335.21875 226.140625 335.375 226.140625 335.558594 L 226.140625 341.402344 C 226.140625 341.582031 225.988281 341.738281 225.804688 341.738281 Z M 225.804688 341.738281 " fill-opacity="1" fill-rule="nonzero"/><path fill="#192351" d="M 218.8125 341.738281 C 218.621094 341.738281 218.476562 341.582031 218.476562 341.402344 L 218.476562 335.558594 C 218.476562 335.363281 218.632812 335.21875 218.8125 335.21875 C 218.996094 335.21875 219.152344 335.375 219.152344 335.558594 L 219.152344 341.402344 C 219.160156 341.582031 219.003906 341.738281 218.8125 341.738281 Z M 218.8125 341.738281 " fill-opacity="1" fill-rule="nonzero"/><path fill="#192351" d="M 211.824219 341.738281 C 211.632812 341.738281 211.484375 341.582031 211.484375 341.402344 L 211.484375 335.558594 C 211.484375 335.363281 211.640625 335.21875 211.824219 335.21875 C 212.007812 335.21875 212.160156 335.375 212.160156 335.558594 L 212.160156 341.402344 C 212.171875 341.582031 212.015625 341.738281 211.824219 341.738281 Z M 211.824219 341.738281 " fill-opacity="1" fill-rule="nonzero"/><path fill="#4b6fdd" d="M 341.53125 138.265625 L 343.734375 140.46875 L 333.71875 150.476562 L 331.515625 148.273438 Z M 341.53125 138.265625 " fill-opacity="1" fill-rule="nonzero"/><path fill="#4b6fdd" d="M 343.742188 148.28125 L 341.539062 150.484375 L 331.523438 140.472656 L 333.726562 138.273438 Z M 343.742188 148.28125 " fill-opacity="1" fill-rule="nonzero"/><path fill="#dae4fe" d="M 350.417969 94.824219 L 351.921875 96.328125 L 345.0625 103.1875 L 343.554688 101.683594 Z M 350.417969 94.824219 " fill-opacity="1" fill-rule="nonzero"/><path fill="#dae4fe" d="M 351.929688 101.6875 L 350.421875 103.191406 L 343.558594 96.335938 L 345.066406 94.832031 Z M 351.929688 101.6875 " fill-opacity="1" fill-rule="nonzero"/></svg>