<svg xmlns="http://www.w3.org/2000/svg" xmlns:xlink="http://www.w3.org/1999/xlink" width="500" zoomAndPan="magnify" viewBox="0 0 375 374.999991" height="500" preserveAspectRatio="xMidYMid meet" version="1.0"><defs><g/><clipPath id="de69654f4a"><path d="M 66.578125 144 L 136 144 L 136 266.730469 L 66.578125 266.730469 Z M 66.578125 144 " clip-rule="nonzero"/></clipPath><clipPath id="9e8213c809"><path d="M 153 84 L 222 84 L 222 266.730469 L 153 266.730469 Z M 153 84 " clip-rule="nonzero"/></clipPath><clipPath id="8cf98a1bc8"><path d="M 239 31.230469 L 308 31.230469 L 308 266.730469 L 239 266.730469 Z M 239 31.230469 " clip-rule="nonzero"/></clipPath></defs><path fill="#2196f3" d="M 76.332031 152.675781 C 75.753906 152.675781 75.285156 153.148438 75.285156 153.726562 L 75.285156 257.347656 C 75.285156 257.925781 75.753906 258.394531 76.332031 258.394531 L 126.523438 258.394531 C 127.101562 258.394531 127.574219 257.925781 127.574219 257.347656 L 127.574219 153.722656 C 127.574219 153.144531 127.101562 152.675781 126.523438 152.675781 Z M 76.332031 152.675781 " fill-opacity="1" fill-rule="nonzero"/><g clip-path="url(#de69654f4a)"><path fill="#2196f3" d="M 76.332031 144.378906 C 71.179688 144.378906 66.988281 148.570312 66.988281 153.722656 L 66.988281 257.347656 C 66.988281 262.5 71.179688 266.691406 76.332031 266.691406 L 126.523438 266.691406 C 131.679688 266.691406 135.871094 262.5 135.871094 257.347656 L 135.871094 153.722656 C 135.871094 148.570312 131.679688 144.378906 126.523438 144.378906 Z M 127.574219 153.722656 L 127.574219 257.347656 C 127.574219 257.925781 127.101562 258.394531 126.523438 258.394531 L 76.332031 258.394531 C 75.753906 258.394531 75.285156 257.925781 75.285156 257.347656 L 75.285156 153.722656 C 75.285156 153.144531 75.753906 152.675781 76.332031 152.675781 L 126.523438 152.675781 C 127.101562 152.675781 127.574219 153.144531 127.574219 153.722656 Z M 127.574219 153.722656 " fill-opacity="1" fill-rule="nonzero"/></g><path fill="#2196f3" d="M 212.5625 92.535156 L 162.371094 92.535156 C 161.792969 92.535156 161.324219 93.003906 161.324219 93.582031 L 161.324219 257.347656 C 161.324219 257.925781 161.792969 258.394531 162.371094 258.394531 L 212.5625 258.394531 C 213.140625 258.394531 213.613281 257.925781 213.613281 257.347656 L 213.613281 93.582031 C 213.613281 93.003906 213.140625 92.535156 212.5625 92.535156 Z M 212.5625 92.535156 " fill-opacity="1" fill-rule="nonzero"/><g clip-path="url(#9e8213c809)"><path fill="#2196f3" d="M 212.5625 84.234375 L 162.371094 84.234375 C 157.21875 84.234375 153.027344 88.429688 153.027344 93.582031 L 153.027344 257.347656 C 153.027344 262.5 157.21875 266.691406 162.371094 266.691406 L 212.566406 266.691406 C 217.71875 266.691406 221.910156 262.5 221.910156 257.347656 L 221.910156 93.582031 C 221.910156 88.429688 217.71875 84.234375 212.5625 84.234375 Z M 213.613281 257.347656 C 213.613281 257.925781 213.140625 258.394531 212.5625 258.394531 L 162.371094 258.394531 C 161.792969 258.394531 161.324219 257.925781 161.324219 257.347656 L 161.324219 93.582031 C 161.324219 93.003906 161.792969 92.53125 162.371094 92.53125 L 212.566406 92.53125 C 213.144531 92.53125 213.613281 93.003906 213.613281 93.582031 Z M 213.613281 257.347656 " fill-opacity="1" fill-rule="nonzero"/></g><path fill="#2196f3" d="M 248.410156 258.394531 L 298.601562 258.394531 C 299.179688 258.394531 299.652344 257.921875 299.652344 257.347656 L 299.652344 40.578125 C 299.652344 40 299.179688 39.53125 298.601562 39.53125 L 248.410156 39.53125 C 247.832031 39.53125 247.363281 40 247.363281 40.578125 L 247.363281 257.347656 C 247.363281 257.925781 247.832031 258.394531 248.410156 258.394531 Z M 248.410156 258.394531 " fill-opacity="1" fill-rule="nonzero"/><g clip-path="url(#8cf98a1bc8)"><path fill="#2196f3" d="M 248.410156 266.691406 L 298.601562 266.691406 C 303.757812 266.691406 307.949219 262.5 307.949219 257.347656 L 307.949219 40.578125 C 307.949219 35.425781 303.757812 31.230469 298.601562 31.230469 L 248.410156 31.230469 C 243.257812 31.230469 239.0625 35.425781 239.0625 40.578125 L 239.0625 257.347656 C 239.066406 262.5 243.257812 266.691406 248.410156 266.691406 Z M 247.363281 40.578125 C 247.363281 40 247.832031 39.53125 248.410156 39.53125 L 298.605469 39.53125 C 299.183594 39.53125 299.652344 40 299.652344 40.578125 L 299.652344 257.347656 C 299.652344 257.925781 299.183594 258.394531 298.605469 258.394531 L 248.410156 258.394531 C 247.832031 258.394531 247.363281 257.925781 247.363281 257.347656 Z M 247.363281 40.578125 " fill-opacity="1" fill-rule="nonzero"/></g><g fill="#000000" fill-opacity="1"><g transform="translate(37.500002, 324.548923)"><g><path d="M 6.53125 0 C 6.019531 0 5.765625 -0.238281 5.765625 -0.71875 L 5.765625 -45.5625 C 5.765625 -46.039062 6.019531 -46.28125 6.53125 -46.28125 L 22.328125 -46.28125 C 27.585938 -46.28125 31.707031 -44.832031 34.6875 -41.9375 C 37.664062 -39.050781 39.15625 -34.953125 39.15625 -29.640625 L 39.15625 -16.375 C 39.15625 -11.15625 37.664062 -7.117188 34.6875 -4.265625 C 31.707031 -1.421875 27.585938 0 22.328125 0 Z M 11.328125 -5.171875 L 22.265625 -5.171875 C 25.847656 -5.171875 28.609375 -6.109375 30.546875 -7.984375 C 32.484375 -9.867188 33.453125 -12.664062 33.453125 -16.375 L 33.453125 -29.640625 C 33.453125 -33.484375 32.484375 -36.375 30.546875 -38.3125 C 28.609375 -40.25 25.847656 -41.21875 22.265625 -41.21875 L 11.328125 -41.21875 Z M 11.328125 -5.171875 "/></g></g></g><g fill="#000000" fill-opacity="1"><g transform="translate(80.844865, 324.548923)"><g><path d="M 3.953125 -30.8125 C 5.460938 -31.84375 7.25 -32.660156 9.3125 -33.265625 C 11.382812 -33.867188 13.671875 -34.171875 16.171875 -34.171875 C 20.148438 -34.171875 23.289062 -33.125 25.59375 -31.03125 C 27.90625 -28.9375 29.0625 -25.796875 29.0625 -21.609375 L 29.0625 -2.203125 C 29.0625 -1.765625 28.863281 -1.484375 28.46875 -1.359375 C 26.96875 -0.796875 25.113281 -0.3125 22.90625 0.09375 C 20.707031 0.507812 18.398438 0.71875 15.984375 0.71875 C 13.566406 0.71875 11.300781 0.375 9.1875 -0.3125 C 7.070312 -1.007812 5.359375 -2.144531 4.046875 -3.71875 C 2.734375 -5.289062 2.078125 -7.351562 2.078125 -9.90625 C 2.078125 -13.351562 3.359375 -15.925781 5.921875 -17.625 C 8.484375 -19.332031 11.835938 -20.1875 15.984375 -20.1875 C 17.316406 -20.1875 18.675781 -20.109375 20.0625 -19.953125 C 21.445312 -19.804688 22.675781 -19.628906 23.75 -19.421875 L 23.75 -21.484375 C 23.75 -24.117188 23.15625 -26.09375 21.96875 -27.40625 C 20.78125 -28.71875 18.785156 -29.375 15.984375 -29.375 C 14.171875 -29.375 12.46875 -29.144531 10.875 -28.6875 C 9.28125 -28.238281 7.921875 -27.671875 6.796875 -26.984375 C 6.410156 -26.722656 6.085938 -26.789062 5.828125 -27.1875 L 3.953125 -29.90625 C 3.734375 -30.289062 3.734375 -30.59375 3.953125 -30.8125 Z M 7.375 -9.90625 C 7.375 -7.957031 8.179688 -6.488281 9.796875 -5.5 C 11.421875 -4.507812 13.484375 -4.015625 15.984375 -4.015625 C 17.453125 -4.015625 18.875 -4.128906 20.25 -4.359375 C 21.632812 -4.597656 22.800781 -4.867188 23.75 -5.171875 L 23.75 -14.890625 C 22.71875 -15.097656 21.5 -15.273438 20.09375 -15.421875 C 18.6875 -15.578125 17.316406 -15.65625 15.984375 -15.65625 C 13.046875 -15.65625 10.875 -15.140625 9.46875 -14.109375 C 8.070312 -13.078125 7.375 -11.675781 7.375 -9.90625 Z M 7.375 -9.90625 "/></g></g></g><g fill="#000000" fill-opacity="1"><g transform="translate(113.903407, 324.548923)"><g><path d="M 9.578125 -11 C 9.578125 -8.882812 10.113281 -7.222656 11.1875 -6.015625 C 12.269531 -4.804688 13.804688 -4.203125 15.796875 -4.203125 C 16.140625 -4.203125 16.601562 -4.210938 17.1875 -4.234375 C 17.769531 -4.253906 18.335938 -4.289062 18.890625 -4.34375 C 19.410156 -4.34375 19.671875 -4.101562 19.671875 -3.625 L 19.671875 -0.1875 C 19.671875 0.28125 19.457031 0.535156 19.03125 0.578125 C 18.46875 0.617188 17.847656 0.648438 17.171875 0.671875 C 16.503906 0.703125 15.957031 0.71875 15.53125 0.71875 C 12.289062 0.71875 9.601562 -0.195312 7.46875 -2.03125 C 5.332031 -3.875 4.265625 -6.78125 4.265625 -10.75 L 4.265625 -40.90625 C 4.265625 -41.414062 4.523438 -41.671875 5.046875 -41.671875 L 8.40625 -41.671875 C 8.800781 -41.671875 9.039062 -41.4375 9.125 -40.96875 L 9.578125 -33.140625 L 17.984375 -33.140625 C 18.460938 -33.140625 18.703125 -32.898438 18.703125 -32.421875 L 18.703125 -29.1875 C 18.703125 -28.664062 18.460938 -28.40625 17.984375 -28.40625 L 9.578125 -28.40625 Z M 9.578125 -11 "/></g></g></g><g fill="#000000" fill-opacity="1"><g transform="translate(134.670143, 324.548923)"><g><path d="M 3.953125 -30.8125 C 5.460938 -31.84375 7.25 -32.660156 9.3125 -33.265625 C 11.382812 -33.867188 13.671875 -34.171875 16.171875 -34.171875 C 20.148438 -34.171875 23.289062 -33.125 25.59375 -31.03125 C 27.90625 -28.9375 29.0625 -25.796875 29.0625 -21.609375 L 29.0625 -2.203125 C 29.0625 -1.765625 28.863281 -1.484375 28.46875 -1.359375 C 26.96875 -0.796875 25.113281 -0.3125 22.90625 0.09375 C 20.707031 0.507812 18.398438 0.71875 15.984375 0.71875 C 13.566406 0.71875 11.300781 0.375 9.1875 -0.3125 C 7.070312 -1.007812 5.359375 -2.144531 4.046875 -3.71875 C 2.734375 -5.289062 2.078125 -7.351562 2.078125 -9.90625 C 2.078125 -13.351562 3.359375 -15.925781 5.921875 -17.625 C 8.484375 -19.332031 11.835938 -20.1875 15.984375 -20.1875 C 17.316406 -20.1875 18.675781 -20.109375 20.0625 -19.953125 C 21.445312 -19.804688 22.675781 -19.628906 23.75 -19.421875 L 23.75 -21.484375 C 23.75 -24.117188 23.15625 -26.09375 21.96875 -27.40625 C 20.78125 -28.71875 18.785156 -29.375 15.984375 -29.375 C 14.171875 -29.375 12.46875 -29.144531 10.875 -28.6875 C 9.28125 -28.238281 7.921875 -27.671875 6.796875 -26.984375 C 6.410156 -26.722656 6.085938 -26.789062 5.828125 -27.1875 L 3.953125 -29.90625 C 3.734375 -30.289062 3.734375 -30.59375 3.953125 -30.8125 Z M 7.375 -9.90625 C 7.375 -7.957031 8.179688 -6.488281 9.796875 -5.5 C 11.421875 -4.507812 13.484375 -4.015625 15.984375 -4.015625 C 17.453125 -4.015625 18.875 -4.128906 20.25 -4.359375 C 21.632812 -4.597656 22.800781 -4.867188 23.75 -5.171875 L 23.75 -14.890625 C 22.71875 -15.097656 21.5 -15.273438 20.09375 -15.421875 C 18.6875 -15.578125 17.316406 -15.65625 15.984375 -15.65625 C 13.046875 -15.65625 10.875 -15.140625 9.46875 -14.109375 C 8.070312 -13.078125 7.375 -11.675781 7.375 -9.90625 Z M 7.375 -9.90625 "/></g></g></g><g fill="#000000" fill-opacity="1"><g transform="translate(167.728685, 324.548923)"><g><path d="M 9.765625 -32.546875 C 10.890625 -33.023438 12.128906 -33.414062 13.484375 -33.71875 C 14.847656 -34.019531 16.304688 -34.171875 17.859375 -34.171875 C 20.535156 -34.171875 22.941406 -33.695312 25.078125 -32.75 C 27.210938 -31.800781 28.894531 -30.289062 30.125 -28.21875 C 31.351562 -26.144531 31.96875 -23.425781 31.96875 -20.0625 L 31.96875 -0.71875 C 31.96875 -0.238281 31.707031 0 31.1875 0 L 27.375 0 C 26.90625 0 26.671875 -0.238281 26.671875 -0.71875 L 26.671875 -19.875 C 26.671875 -23.363281 25.878906 -25.816406 24.296875 -27.234375 C 22.722656 -28.660156 20.46875 -29.375 17.53125 -29.375 C 16.113281 -29.375 14.722656 -29.222656 13.359375 -28.921875 C 12.003906 -28.617188 10.804688 -28.210938 9.765625 -27.703125 L 9.765625 -0.71875 C 9.765625 -0.238281 9.507812 0 9 0 L 5.171875 0 C 4.703125 0 4.46875 -0.238281 4.46875 -0.71875 L 4.46875 -45.5625 C 4.46875 -46.039062 4.703125 -46.28125 5.171875 -46.28125 L 9 -46.28125 C 9.507812 -46.28125 9.765625 -46.039062 9.765625 -45.5625 Z M 9.765625 -32.546875 "/></g></g></g><g fill="#000000" fill-opacity="1"><g transform="translate(203.827856, 324.548923)"><g><path d="M 30.546875 -33.453125 C 31.023438 -33.453125 31.265625 -33.195312 31.265625 -32.6875 L 31.265625 -2.71875 C 31.265625 -2.238281 31.085938 -1.9375 30.734375 -1.8125 C 28.921875 -0.988281 26.976562 -0.363281 24.90625 0.0625 C 22.84375 0.5 20.710938 0.71875 18.515625 0.71875 C 15.703125 0.71875 13.21875 0.242188 11.0625 -0.703125 C 8.90625 -1.660156 7.222656 -3.171875 6.015625 -5.234375 C 4.804688 -7.304688 4.203125 -9.984375 4.203125 -13.265625 L 4.203125 -32.6875 C 4.203125 -33.195312 4.460938 -33.453125 4.984375 -33.453125 L 8.796875 -33.453125 C 9.273438 -33.453125 9.515625 -33.195312 9.515625 -32.6875 L 9.515625 -13.390625 C 9.515625 -9.984375 10.3125 -7.566406 11.90625 -6.140625 C 13.5 -4.722656 15.703125 -4.015625 18.515625 -4.015625 C 19.890625 -4.015625 21.222656 -4.128906 22.515625 -4.359375 C 23.816406 -4.597656 24.960938 -4.894531 25.953125 -5.25 L 25.953125 -32.6875 C 25.953125 -33.195312 26.210938 -33.453125 26.734375 -33.453125 Z M 30.546875 -33.453125 "/></g></g></g><g fill="#000000" fill-opacity="1"><g transform="translate(239.474161, 324.548923)"><g><path d="M 9.703125 -32.171875 C 10.828125 -32.773438 12.085938 -33.257812 13.484375 -33.625 C 14.890625 -33.988281 16.347656 -34.171875 17.859375 -34.171875 C 20.617188 -34.171875 23.046875 -33.628906 25.140625 -32.546875 C 27.234375 -31.472656 28.882812 -29.910156 30.09375 -27.859375 C 31.300781 -25.804688 31.90625 -23.335938 31.90625 -20.453125 L 31.90625 -13.265625 C 31.90625 -10.023438 31.289062 -7.367188 30.0625 -5.296875 C 28.832031 -3.234375 27.128906 -1.710938 24.953125 -0.734375 C 22.773438 0.234375 20.28125 0.71875 17.46875 0.71875 C 15.40625 0.71875 13.269531 0.507812 11.0625 0.09375 C 8.863281 -0.3125 6.835938 -0.859375 4.984375 -1.546875 C 4.597656 -1.722656 4.40625 -2.003906 4.40625 -2.390625 L 4.40625 -45.5625 C 4.40625 -46.039062 4.640625 -46.28125 5.109375 -46.28125 L 8.9375 -46.28125 C 9.445312 -46.28125 9.703125 -46.039062 9.703125 -45.5625 Z M 17.34375 -4.015625 C 20.238281 -4.015625 22.492188 -4.710938 24.109375 -6.109375 C 25.722656 -7.515625 26.53125 -9.898438 26.53125 -13.265625 L 26.53125 -20.453125 C 26.53125 -23.554688 25.742188 -25.832031 24.171875 -27.28125 C 22.597656 -28.726562 20.34375 -29.453125 17.40625 -29.453125 C 15.9375 -29.453125 14.546875 -29.242188 13.234375 -28.828125 C 11.921875 -28.421875 10.742188 -27.847656 9.703125 -27.109375 L 9.703125 -5.25 C 10.703125 -4.851562 11.878906 -4.546875 13.234375 -4.328125 C 14.597656 -4.117188 15.96875 -4.015625 17.34375 -4.015625 Z M 17.34375 -4.015625 "/></g></g></g><g fill="#2196f3" fill-opacity="1"><g transform="translate(274.657136, 325.006659)"><g><path d="M 10.421875 -3.234375 C 10.421875 -2.203125 10.082031 -1.347656 9.40625 -0.671875 C 8.738281 -0.00390625 7.890625 0.328125 6.859375 0.328125 C 5.785156 0.328125 4.921875 -0.00390625 4.265625 -0.671875 C 3.617188 -1.347656 3.296875 -2.203125 3.296875 -3.234375 C 3.296875 -4.316406 3.617188 -5.191406 4.265625 -5.859375 C 4.921875 -6.523438 5.785156 -6.859375 6.859375 -6.859375 C 7.890625 -6.859375 8.738281 -6.523438 9.40625 -5.859375 C 10.082031 -5.191406 10.421875 -4.316406 10.421875 -3.234375 Z M 10.421875 -3.234375 "/></g></g></g><g fill="#2196f3" fill-opacity="1"><g transform="translate(288.310849, 325.006659)"><g><path d="M 10.359375 -42.84375 C 10.359375 -41.9375 10.054688 -41.179688 9.453125 -40.578125 C 8.847656 -39.972656 8.09375 -39.671875 7.1875 -39.671875 C 6.28125 -39.671875 5.515625 -39.972656 4.890625 -40.578125 C 4.265625 -41.179688 3.953125 -41.9375 3.953125 -42.84375 C 3.953125 -43.789062 4.265625 -44.554688 4.890625 -45.140625 C 5.515625 -45.722656 6.28125 -46.015625 7.1875 -46.015625 C 8.09375 -46.015625 8.847656 -45.722656 9.453125 -45.140625 C 10.054688 -44.554688 10.359375 -43.789062 10.359375 -42.84375 Z M 5.25 0 C 4.726562 0 4.46875 -0.238281 4.46875 -0.71875 L 4.46875 -32.6875 C 4.46875 -33.195312 4.726562 -33.453125 5.25 -33.453125 L 9.0625 -33.453125 C 9.53125 -33.453125 9.765625 -33.195312 9.765625 -32.6875 L 9.765625 -0.71875 C 9.765625 -0.238281 9.53125 0 9.0625 0 Z M 5.25 0 "/></g></g></g><g fill="#2196f3" fill-opacity="1"><g transform="translate(302.546944, 325.006659)"><g><path d="M 31.71875 -11.96875 C 31.71875 -8.175781 30.441406 -5.113281 27.890625 -2.78125 C 25.347656 -0.445312 21.875 0.71875 17.46875 0.71875 C 13.113281 0.71875 9.648438 -0.445312 7.078125 -2.78125 C 4.515625 -5.113281 3.234375 -8.175781 3.234375 -11.96875 L 3.234375 -21.296875 C 3.234375 -23.835938 3.816406 -26.066406 4.984375 -27.984375 C 6.148438 -29.910156 7.800781 -31.421875 9.9375 -32.515625 C 12.070312 -33.617188 14.582031 -34.171875 17.46875 -34.171875 C 20.40625 -34.171875 22.941406 -33.617188 25.078125 -32.515625 C 27.210938 -31.421875 28.851562 -29.910156 30 -27.984375 C 31.144531 -26.066406 31.71875 -23.835938 31.71875 -21.296875 Z M 8.609375 -11.96875 C 8.609375 -9.550781 9.363281 -7.617188 10.875 -6.171875 C 12.382812 -4.734375 14.582031 -4.015625 17.46875 -4.015625 C 20.40625 -4.015625 22.628906 -4.734375 24.140625 -6.171875 C 25.648438 -7.617188 26.40625 -9.550781 26.40625 -11.96875 L 26.40625 -21.296875 C 26.40625 -23.753906 25.648438 -25.710938 24.140625 -27.171875 C 22.628906 -28.640625 20.40625 -29.375 17.46875 -29.375 C 14.582031 -29.375 12.382812 -28.640625 10.875 -27.171875 C 9.363281 -25.710938 8.609375 -23.753906 8.609375 -21.296875 Z M 8.609375 -11.96875 "/></g></g></g></svg>